<?xml version="1.0" encoding="UTF-8" standalone="no"?>
<!DOCTYPE svg PUBLIC "-//W3C//DTD SVG 1.1//EN" "http://www.w3.org/Graphics/SVG/1.1/DTD/svg11.dtd">
<svg width="100%" height="100%" viewBox="0 0 1024 1024" version="1.1" xmlns="http://www.w3.org/2000/svg" xmlns:xlink="http://www.w3.org/1999/xlink" xml:space="preserve" xmlns:serif="http://www.serif.com/" style="fill-rule:evenodd;clip-rule:evenodd;stroke-linejoin:round;stroke-miterlimit:2;">
    <g transform="matrix(1,0,0,1,-78,72.1748)">
        <path d="M784.542,-20C828.44,-20 869.003,3.417 890.955,41.431L1085.53,378.374C1107.49,416.399 1107.49,463.251 1085.53,501.276L890.955,838.219C869.003,876.233 828.44,899.65 784.542,899.65L395.458,899.65C351.56,899.65 310.997,876.233 289.045,838.219L94.469,501.276C72.51,463.251 72.51,416.399 94.469,378.374L289.045,41.431C310.997,3.417 351.56,-20 395.458,-20L784.542,-20ZM799.754,76.507L380.246,76.507L170.492,439.825L380.246,803.144L799.754,803.144L1009.51,439.825L799.754,76.507ZM474.393,236.988L792.838,555.432C816.909,579.504 816.909,618.591 792.838,642.663C768.766,666.735 729.679,666.735 705.607,642.663L387.162,324.218C363.091,300.146 363.091,261.059 387.162,236.988C411.234,212.916 450.321,212.916 474.393,236.988Z"/>
    </g>
</svg>
