<?xml version="1.0" encoding="UTF-8" standalone="no"?>
<!DOCTYPE svg PUBLIC "-//W3C//DTD SVG 1.1//EN" "http://www.w3.org/Graphics/SVG/1.1/DTD/svg11.dtd">
<svg width="100%" height="100%" viewBox="0 0 1024 1024" version="1.1" xmlns="http://www.w3.org/2000/svg" xmlns:xlink="http://www.w3.org/1999/xlink" xml:space="preserve" xmlns:serif="http://www.serif.com/" style="fill-rule:evenodd;clip-rule:evenodd;stroke-linejoin:round;stroke-miterlimit:2;">
    <path d="M512,0C794.752,0 1024,229.248 1024,512C1024,794.752 794.752,1024 512,1024C229.248,1024 0,794.752 0,512C0,229.248 229.248,0 512,0ZM512,896C724.032,896 896,724.032 896,512C896,299.968 724.032,128 512,128C299.968,128 128,299.968 128,512C128,724.032 299.968,896 512,896ZM512,421.49L625.137,308.353C650.114,283.376 690.67,283.376 715.647,308.353C740.624,333.33 740.624,373.886 715.647,398.863L602.51,512L715.647,625.137C740.624,650.114 740.624,690.67 715.647,715.647C690.67,740.624 650.114,740.624 625.137,715.647L512,602.51L398.863,715.647C373.886,740.624 333.33,740.624 308.353,715.647C283.376,690.67 283.376,650.114 308.353,625.137L421.49,512L308.353,398.863C283.376,373.886 283.376,333.33 308.353,308.353C333.33,283.376 373.886,283.376 398.863,308.353L512,421.49Z"/>
</svg>
