<?xml version="1.0" encoding="UTF-8" standalone="no"?>
<!DOCTYPE svg PUBLIC "-//W3C//DTD SVG 1.1//EN" "http://www.w3.org/Graphics/SVG/1.1/DTD/svg11.dtd">
<svg width="100%" height="100%" viewBox="0 0 1024 1024" version="1.1" xmlns="http://www.w3.org/2000/svg" xmlns:xlink="http://www.w3.org/1999/xlink" xml:space="preserve" xmlns:serif="http://www.serif.com/" style="fill-rule:evenodd;clip-rule:evenodd;stroke-linejoin:round;stroke-miterlimit:2;">
    <path d="M150.119,652.627C150.119,641.581 159.073,632.627 170.119,632.627L210.537,632.627C221.583,632.627 230.537,641.581 230.537,652.627L230.537,693.045C230.537,704.091 221.583,713.045 210.537,713.045L170.119,713.045C159.073,713.045 150.119,704.091 150.119,693.045L150.119,652.627ZM230.537,572.209C230.537,561.163 239.491,552.209 250.537,552.209L290.955,552.209C302.001,552.209 310.955,561.163 310.955,572.209L310.955,612.627C310.955,623.673 302.001,632.627 290.955,632.627L250.537,632.627C239.491,632.627 230.537,623.673 230.537,612.627L230.537,572.209ZM310.955,491.791C310.955,480.745 319.909,471.791 330.955,471.791L371.373,471.791C382.419,471.791 391.373,480.745 391.373,491.791L391.373,532.209C391.373,543.255 382.419,552.209 371.373,552.209L330.955,552.209C319.909,552.209 310.955,543.255 310.955,532.209L310.955,491.791ZM310.955,652.627C310.955,641.581 319.909,632.627 330.955,632.627L371.373,632.627C382.419,632.627 391.373,641.581 391.373,652.627L391.373,693.045C391.373,704.091 382.419,713.045 371.373,713.045L330.955,713.045C319.909,713.045 310.955,704.091 310.955,693.045L310.955,652.627ZM391.373,411.373C391.373,400.327 400.327,391.373 411.373,391.373L451.791,391.373C462.837,391.373 471.791,400.327 471.791,411.373L471.791,451.791C471.791,462.837 462.837,471.791 451.791,471.791L411.373,471.791C400.327,471.791 391.373,462.837 391.373,451.791L391.373,411.373ZM391.373,572.209C391.373,561.163 400.327,552.209 411.373,552.209L451.791,552.209C462.837,552.209 471.791,561.163 471.791,572.209L471.791,612.627C471.791,623.673 462.837,632.627 451.791,632.627L411.373,632.627C400.327,632.627 391.373,623.673 391.373,612.627L391.373,572.209ZM471.791,330.955C471.791,319.909 480.745,310.955 491.791,310.955L532.209,310.955C543.255,310.955 552.209,319.909 552.209,330.955L552.209,371.373C552.209,382.419 543.255,391.373 532.209,391.373L491.791,391.373C480.745,391.373 471.791,382.419 471.791,371.373L471.791,330.955ZM471.791,491.791C471.791,480.745 480.745,471.791 491.791,471.791L532.209,471.791C543.255,471.791 552.209,480.745 552.209,491.791L552.209,532.209C552.209,543.255 543.255,552.209 532.209,552.209L491.791,552.209C480.745,552.209 471.791,543.255 471.791,532.209L471.791,491.791ZM471.791,652.627C471.791,641.581 480.745,632.627 491.791,632.627L532.209,632.627C543.255,632.627 552.209,641.581 552.209,652.627L552.209,693.045C552.209,704.091 543.255,713.045 532.209,713.045L491.791,713.045C480.745,713.045 471.791,704.091 471.791,693.045L471.791,652.627ZM552.209,411.373C552.209,400.327 561.163,391.373 572.209,391.373L612.627,391.373C623.673,391.373 632.627,400.327 632.627,411.373L632.627,451.791C632.627,462.837 623.673,471.791 612.627,471.791L572.209,471.791C561.163,471.791 552.209,462.837 552.209,451.791L552.209,411.373ZM552.209,572.209C552.209,561.163 561.163,552.209 572.209,552.209L612.627,552.209C623.673,552.209 632.627,561.163 632.627,572.209L632.627,612.627C632.627,623.673 623.673,632.627 612.627,632.627L572.209,632.627C561.163,632.627 552.209,623.673 552.209,612.627L552.209,572.209ZM632.627,491.791C632.627,480.745 641.581,471.791 652.627,471.791L693.045,471.791C704.091,471.791 713.045,480.745 713.045,491.791L713.045,532.209C713.045,543.255 704.091,552.209 693.045,552.209L652.627,552.209C641.581,552.209 632.627,543.255 632.627,532.209L632.627,491.791ZM632.627,652.627C632.627,641.581 641.581,632.627 652.627,632.627L693.045,632.627C704.091,632.627 713.045,641.581 713.045,652.627L713.045,693.045C713.045,704.091 704.091,713.045 693.045,713.045L652.627,713.045C641.581,713.045 632.627,704.091 632.627,693.045L632.627,652.627ZM713.045,572.209C713.045,561.163 721.999,552.209 733.045,552.209L773.463,552.209C784.509,552.209 793.463,561.163 793.463,572.209L793.463,612.627C793.463,623.673 784.509,632.627 773.463,632.627L733.045,632.627C721.999,632.627 713.045,623.673 713.045,612.627L713.045,572.209ZM793.463,652.627C793.463,641.581 802.417,632.627 813.463,632.627L853.881,632.627C864.927,632.627 873.881,641.581 873.881,652.627L873.881,693.045C873.881,704.091 864.927,713.045 853.881,713.045L813.463,713.045C802.417,713.045 793.463,704.091 793.463,693.045L793.463,652.627ZM80.418,110.418L80.418,270C80.418,277.956 77.257,285.587 71.631,291.213C66.005,296.839 58.374,300 50.418,300L30,300C22.044,300 14.413,296.839 8.787,291.213C3.161,285.587 0,277.956 0,270L0,30C0,13.431 13.431,0 30,0L270,-0C277.956,0 285.587,3.161 291.213,8.787C296.839,14.413 300,22.044 300,30L300,50.418C300,58.374 296.839,66.005 291.213,71.631C285.587,77.257 277.956,80.418 270,80.418L110.418,80.418C102.462,80.418 94.831,83.579 89.205,89.205C83.579,94.831 80.418,102.462 80.418,110.418ZM754,0L994,0C1001.96,-0 1009.59,3.161 1015.21,8.787C1020.84,14.413 1024,22.044 1024,30L1024,270C1024,277.956 1020.84,285.587 1015.21,291.213C1009.59,296.839 1001.96,300 994,300L973.582,300C965.626,300 957.995,296.839 952.369,291.213C946.743,285.587 943.582,277.956 943.582,270L943.582,110.417C943.582,102.461 940.421,94.83 934.795,89.204C929.169,83.578 921.538,80.417 913.582,80.417L754,80.417C746.044,80.417 738.413,77.256 732.787,71.63C727.161,66.004 724,58.373 724,50.417L724,30C724,22.044 727.161,14.413 732.787,8.787C738.413,3.161 746.044,-0 754,0ZM943.582,913.582L943.582,754C943.582,746.044 946.743,738.413 952.369,732.787C957.995,727.161 965.626,724 973.582,724L994,724C1001.96,724 1009.59,727.161 1015.21,732.787C1020.84,738.413 1024,746.044 1024,754L1024,994C1024,1010.57 1010.57,1024 994,1024L754,1024C746.044,1024 738.413,1020.84 732.787,1015.21C727.161,1009.59 724,1001.96 724,994L724,973.582C724,965.626 727.161,957.995 732.787,952.369C738.413,946.743 746.044,943.582 754,943.582L913.582,943.582C921.538,943.582 929.169,940.421 934.795,934.795C940.421,929.169 943.582,921.538 943.582,913.582ZM80.418,754L80.418,913.582C80.418,921.538 83.579,929.169 89.205,934.795C94.831,940.421 102.462,943.582 110.418,943.582L270,943.582C277.956,943.582 285.587,946.743 291.213,952.369C296.839,957.995 300,965.626 300,973.582L300,994C300,1001.96 296.839,1009.59 291.213,1015.21C285.587,1020.84 277.956,1024 270,1024L30,1024C13.431,1024 0,1010.57 0,994L-0,754C0,746.044 3.161,738.413 8.787,732.787C14.413,727.161 22.044,724 30,724L50.418,724C58.374,724 66.005,727.161 71.631,732.787C77.257,738.413 80.418,746.044 80.418,754Z"/>
</svg>
