<?xml version="1.0" encoding="UTF-8" standalone="no"?>
<!DOCTYPE svg PUBLIC "-//W3C//DTD SVG 1.1//EN" "http://www.w3.org/Graphics/SVG/1.1/DTD/svg11.dtd">
<svg width="100%" height="100%" viewBox="0 0 1024 1024" version="1.1" xmlns="http://www.w3.org/2000/svg" xmlns:xlink="http://www.w3.org/1999/xlink" xml:space="preserve" xmlns:serif="http://www.serif.com/" style="fill-rule:evenodd;clip-rule:evenodd;stroke-linejoin:round;stroke-miterlimit:2;">
    <g transform="matrix(1.2498,0,0,1.2498,-129.758,-129.643)">
        <path d="M771.829,510.634C771.829,660.638 655.159,788.496 510.634,788.496C467.679,788.496 428.768,772.151 390.499,753.43C386.137,751.311 383.07,747.213 382.266,742.431C381.463,737.649 383.021,732.773 386.45,729.344C395.807,719.985 407.484,708.307 414.77,701.022C418.951,696.841 425.199,695.508 430.722,697.618C456.611,707.493 486.42,716.348 516.228,716.348C621.825,716.348 710.754,627.418 710.754,510.748L640.352,510.748C634.342,510.748 628.913,507.16 626.557,501.631C624.202,496.102 625.375,489.701 629.538,485.367C658.784,454.92 706.525,405.218 727.794,383.076C730.622,380.132 734.527,378.469 738.608,378.469C742.69,378.469 746.595,380.133 749.422,383.076C770.673,405.2 818.347,454.833 847.566,485.253C851.729,489.587 852.902,495.988 850.546,501.517C848.191,507.046 842.761,510.634 836.752,510.634C807.91,510.634 771.829,510.634 771.829,510.634ZM179.387,536.126C175.226,531.791 174.055,525.39 176.412,519.863C178.768,514.335 184.196,510.748 190.205,510.748L255.034,510.748C255.034,355.151 371.818,232.887 521.822,238.481C564.578,238.481 603.328,250.668 641.426,268.119C645.894,270.158 649.079,274.257 649.952,279.09C650.824,283.923 649.273,288.877 645.801,292.35C636.482,301.679 624.92,313.242 617.687,320.475C613.505,324.656 607.258,325.989 601.734,323.879C575.845,314.004 546.036,305.149 516.228,305.149C410.632,305.149 321.702,394.079 321.702,510.748L386.531,510.748C392.54,510.748 397.968,514.335 400.325,519.863C402.681,525.39 401.51,531.791 397.35,536.126C368.135,566.566 320.445,616.256 299.186,638.407C296.359,641.353 292.452,643.019 288.368,643.019C284.284,643.019 280.377,641.353 277.55,638.407C256.291,616.256 208.601,566.566 179.387,536.126Z" style="fill:rgb(235,235,235);"/>
    </g>
</svg>
