<?xml version="1.0" encoding="UTF-8" standalone="no"?>
<!DOCTYPE svg PUBLIC "-//W3C//DTD SVG 1.1//EN" "http://www.w3.org/Graphics/SVG/1.1/DTD/svg11.dtd">
<svg width="100%" height="100%" viewBox="0 0 1024 1024" version="1.1" xmlns="http://www.w3.org/2000/svg" xmlns:xlink="http://www.w3.org/1999/xlink" xml:space="preserve" xmlns:serif="http://www.serif.com/" style="fill-rule:evenodd;clip-rule:evenodd;stroke-linejoin:round;stroke-miterlimit:2;">
    <path d="M512,-0C794.765,-0 1024,229.235 1024,512C1024,794.765 794.765,1024 512,1024C229.235,1024 -0,794.765 -0,512C-0,229.235 229.235,-0 512,-0ZM690.995,267.482L430.592,361.229C398.307,372.855 372.849,398.318 361.229,430.605L267.482,690.995C265.476,696.561 264.451,702.433 264.451,708.349C264.451,736.437 287.563,759.549 315.651,759.549C321.567,759.549 327.439,758.524 333.005,756.518L593.408,662.771C625.693,651.145 651.151,625.682 662.771,593.395L756.518,333.005C758.524,327.439 759.549,321.567 759.549,315.651C759.549,287.563 736.437,264.451 708.349,264.451C702.433,264.451 696.561,265.476 690.995,267.482Z" style="fill-rule:nonzero;"/>
</svg>
