<?xml version="1.0" encoding="UTF-8" standalone="no"?>
<!DOCTYPE svg PUBLIC "-//W3C//DTD SVG 1.1//EN" "http://www.w3.org/Graphics/SVG/1.1/DTD/svg11.dtd">
<svg width="100%" height="100%" viewBox="0 0 1024 1024" version="1.1" xmlns="http://www.w3.org/2000/svg" xmlns:xlink="http://www.w3.org/1999/xlink" xml:space="preserve" xmlns:serif="http://www.serif.com/" style="fill-rule:evenodd;clip-rule:evenodd;stroke-linejoin:round;stroke-miterlimit:2;">
    <g transform="matrix(10.752,0,0,10.752,-563.2,-473.603)">
        <path d="M106.086,53.279L140.461,105.362C141.246,106.553 141.665,107.949 141.665,109.375C141.665,113.374 138.374,116.666 134.375,116.667L65.632,116.667C61.632,116.666 58.34,113.375 58.34,109.375C58.34,107.947 58.759,106.551 59.546,105.359L93.921,53.276C95.269,51.233 97.559,50.001 100.007,50.001C102.454,50.001 104.744,51.233 106.092,53.276L106.086,53.279ZM137.5,125C139.786,125 141.667,126.881 141.667,129.167C141.667,131.452 139.786,133.333 137.5,133.333L62.5,133.333C60.214,133.333 58.333,131.452 58.333,129.167C58.333,126.881 60.214,125 62.5,125L137.5,125Z" style="fill:white;"/>
    </g>
</svg>
