<?xml version="1.0" encoding="UTF-8" standalone="no"?>
<!DOCTYPE svg PUBLIC "-//W3C//DTD SVG 1.1//EN" "http://www.w3.org/Graphics/SVG/1.1/DTD/svg11.dtd">
<svg width="100%" height="100%" viewBox="0 0 1024 1024" version="1.1" xmlns="http://www.w3.org/2000/svg" xmlns:xlink="http://www.w3.org/1999/xlink" xml:space="preserve" xmlns:serif="http://www.serif.com/" style="fill-rule:evenodd;clip-rule:evenodd;stroke-linejoin:round;stroke-miterlimit:2;">
    <g transform="matrix(54.8603,0,0,54.8603,-160.982,-146.367)">
        <path d="M15.733,18.934C14.64,18.934 13.35,19.256 13.067,20.001C13.049,20.001 13.031,20.001 13.012,20.002C12.993,20.057 12.962,20.103 12.932,20.152C12.913,20.183 12.895,20.213 12.872,20.241C12.841,20.277 12.809,20.31 12.772,20.341C12.732,20.375 12.689,20.403 12.642,20.428C12.61,20.445 12.581,20.465 12.547,20.478C12.459,20.511 12.367,20.534 12.267,20.534C12.167,20.534 12.075,20.511 11.988,20.478C11.954,20.465 11.924,20.445 11.892,20.428C11.846,20.403 11.803,20.375 11.763,20.341C11.726,20.31 11.693,20.278 11.662,20.241C11.639,20.213 11.622,20.183 11.603,20.153C11.572,20.104 11.542,20.057 11.522,20.002C11.504,20.002 11.486,20.002 11.468,20.001C11.184,19.257 9.894,18.934 8.801,18.934L5.268,18.934C3.979,18.934 2.934,17.89 2.934,16.601L2.934,5.801C2.934,5.182 3.18,4.589 3.618,4.151C4.055,3.714 4.649,3.468 5.268,3.468L9.313,3.468C10.519,3.468 11.581,4.014 12.268,4.85C12.955,4.015 14.016,3.468 15.222,3.468L19.267,3.468C19.886,3.468 20.479,3.714 20.917,4.151C21.354,4.589 21.6,5.182 21.6,5.801L21.6,16.601C21.6,17.89 20.555,18.934 19.267,18.934L15.733,18.934L15.733,18.934ZM13.067,7.867C13.067,7.425 12.708,7.067 12.267,7.067C11.825,7.067 11.467,7.425 11.467,7.867L11.467,17.067C11.467,17.508 11.825,17.867 12.267,17.867C12.708,17.867 13.067,17.508 13.067,17.067L13.067,7.867Z" style="fill-rule:nonzero;"/>
    </g>
</svg>
