<?xml version="1.0" encoding="UTF-8" standalone="no"?>
<!DOCTYPE svg PUBLIC "-//W3C//DTD SVG 1.1//EN" "http://www.w3.org/Graphics/SVG/1.1/DTD/svg11.dtd">
<svg width="100%" height="100%" viewBox="0 0 1024 1024" version="1.1" xmlns="http://www.w3.org/2000/svg" xmlns:xlink="http://www.w3.org/1999/xlink" xml:space="preserve" xmlns:serif="http://www.serif.com/" style="fill-rule:evenodd;clip-rule:evenodd;stroke-linejoin:round;stroke-miterlimit:2;">
    <g transform="matrix(1,0,0,1,-1.875,97.236)">
        <path d="M817.282,825.653L210.468,825.653C96.037,825.653 1.875,731.491 1.875,617.061L1.875,212.467C1.875,98.037 96.037,3.875 210.468,3.875L286.319,3.875C378.927,3.874 461.8,49.101 513.875,118.49C565.95,49.101 648.823,3.875 741.431,3.875L817.282,3.875C931.713,3.874 1025.88,98.037 1025.88,212.467L1025.88,617.061C1025.88,731.491 931.713,825.653 817.282,825.653ZM456.986,288.319C456.986,194.694 379.944,117.652 286.319,117.652L210.468,117.652C158.13,117.652 115.653,160.129 115.653,212.467L115.653,617.061C115.653,669.399 158.13,711.876 210.468,711.876L456.986,711.876L456.986,288.319ZM570.764,711.876L817.282,711.876C869.62,711.876 912.097,669.399 912.097,617.061L912.097,212.467C912.097,160.129 869.62,117.652 817.282,117.652L741.431,117.652C647.806,117.652 570.764,194.694 570.764,288.319L570.764,711.876Z"/>
    </g>
</svg>
