<?xml version="1.0" encoding="UTF-8" standalone="no"?>
<!DOCTYPE svg PUBLIC "-//W3C//DTD SVG 1.1//EN" "http://www.w3.org/Graphics/SVG/1.1/DTD/svg11.dtd">
<svg width="100%" height="100%" viewBox="0 0 1024 1024" version="1.1" xmlns="http://www.w3.org/2000/svg" xmlns:xlink="http://www.w3.org/1999/xlink" xml:space="preserve" xmlns:serif="http://www.serif.com/" style="fill-rule:evenodd;clip-rule:evenodd;stroke-linejoin:round;stroke-miterlimit:2;">
    <g id="图层1">
        <g id="星形-1" serif:id="星形 1" transform="matrix(1.34822,0,0,1.3296,-179.84,-170.307)">
            <path d="M479.866,154.217C473.818,183.241 435.437,190.009 419.827,164.803C401.09,134.549 354.341,151.564 359.435,186.784C363.679,216.127 329.927,235.613 306.637,217.267C278.683,195.246 240.573,227.224 257.405,258.577C271.429,284.699 246.377,314.554 218.217,305.28C184.417,294.147 159.543,337.232 186.084,360.937C208.196,380.687 194.866,417.31 165.232,418.226C129.663,419.325 121.024,468.319 154.072,481.517C181.606,492.513 181.606,531.487 154.072,542.483C121.024,555.681 129.663,604.675 165.232,605.774C194.866,606.69 208.196,643.313 186.084,663.063C159.543,686.768 184.418,729.853 218.217,718.72C246.377,709.446 271.429,739.301 257.405,765.423C240.573,796.776 278.683,828.754 306.637,806.733C329.927,788.387 363.679,807.874 359.435,837.216C354.341,872.436 401.09,889.451 419.827,859.197C435.437,833.991 473.819,840.759 479.866,869.783C487.125,904.621 536.875,904.621 544.134,869.783C550.182,840.759 588.563,833.991 604.173,859.197C622.91,889.451 669.659,872.435 664.565,837.216C660.321,807.873 694.073,788.387 717.363,806.733C745.317,828.754 783.427,796.776 766.595,765.423C752.571,739.301 777.623,709.446 805.783,718.72C839.583,729.853 864.457,686.768 837.916,663.063C815.804,643.313 829.134,606.69 858.768,605.774C894.337,604.675 902.976,555.681 869.928,542.483C842.394,531.487 842.394,492.513 869.928,481.517C902.976,468.319 894.337,419.325 858.768,418.226C829.134,417.31 815.804,380.687 837.916,360.937C864.457,337.231 839.582,294.147 805.783,305.28C777.623,314.554 752.571,284.699 766.594,258.577C783.427,227.224 745.317,195.246 717.363,217.267C694.073,235.613 660.321,216.126 664.565,186.784C669.659,151.564 622.91,134.549 604.173,164.803C588.563,190.009 550.182,183.241 544.134,154.217C536.875,119.379 487.125,119.379 479.866,154.217Z" style="fill:none;stroke:rgb(128,128,128);stroke-width:3.11px;"/>
        </g>
        <g id="星形-11" serif:id="星形 1" transform="matrix(1.34835,0,0,1.32973,-179.858,-170.324)">
            <path d="M479.866,154.217C473.818,183.241 435.437,190.009 419.827,164.803C401.09,134.549 354.341,151.564 359.435,186.784C363.679,216.127 329.927,235.613 306.637,217.267C278.683,195.246 240.573,227.224 257.405,258.577C271.429,284.699 246.377,314.554 218.217,305.28C184.417,294.147 159.543,337.232 186.084,360.937C208.196,380.687 194.866,417.31 165.232,418.226C129.663,419.325 121.024,468.319 154.072,481.517C181.606,492.513 181.606,531.487 154.072,542.483C121.024,555.681 129.663,604.675 165.232,605.774C194.866,606.69 208.196,643.313 186.084,663.063C159.543,686.768 184.418,729.853 218.217,718.72C246.377,709.446 271.429,739.301 257.405,765.423C240.573,796.776 278.683,828.754 306.637,806.733C329.927,788.387 363.679,807.874 359.435,837.216C354.341,872.436 401.09,889.451 419.827,859.197C435.437,833.991 473.819,840.759 479.866,869.783C487.125,904.621 536.875,904.621 544.134,869.783C550.182,840.759 588.563,833.991 604.173,859.197C622.91,889.451 669.659,872.435 664.565,837.216C660.321,807.873 694.073,788.387 717.363,806.733C745.317,828.754 783.427,796.776 766.595,765.423C752.571,739.301 777.623,709.446 805.783,718.72C839.583,729.853 864.457,686.768 837.916,663.063C815.804,643.313 829.134,606.69 858.768,605.774C894.337,604.675 902.976,555.681 869.928,542.483C842.394,531.487 842.394,492.513 869.928,481.517C902.976,468.319 894.337,419.325 858.768,418.226C829.134,417.31 815.804,380.687 837.916,360.937C864.457,337.231 839.582,294.147 805.783,305.28C777.623,314.554 752.571,284.699 766.594,258.577C783.427,227.224 745.317,195.246 717.363,217.267C694.073,235.613 660.321,216.126 664.565,186.784C669.659,151.564 622.91,134.549 604.173,164.803C588.563,190.009 550.182,183.241 544.134,154.217C536.875,119.379 487.125,119.379 479.866,154.217Z" style="fill:url(#_Linear1);"/>
        </g>
    </g>
    <g id="图层2">
        <g transform="matrix(14.4565,0,0,14.4565,-3931.8,-5870.1)">
            <path d="M292.859,434.835C292.444,435.061 291.925,434.913 291.692,434.502C290.831,432.983 289.962,431.561 289.083,430.234C288.947,430.03 288.904,429.777 288.965,429.539C289.027,429.301 289.186,429.101 289.404,428.987C289.728,428.819 290.091,428.63 290.397,428.472C290.788,428.269 291.269,428.392 291.514,428.758C292.422,430.116 293.348,431.53 294.293,432.997C294.422,433.199 294.462,433.446 294.403,433.679C294.344,433.912 294.19,434.109 293.979,434.224C293.623,434.418 293.208,434.645 292.859,434.835ZM305.366,456.377C304.968,456.602 304.464,456.479 304.215,456.095C303.001,454.227 301.837,452.449 300.724,450.762C300.592,450.562 300.549,450.316 300.604,450.084C300.66,449.851 300.81,449.652 301.018,449.534C301.344,449.348 301.716,449.137 302.027,448.959C302.413,448.74 302.901,448.848 303.159,449.209C304.41,450.967 305.609,452.745 306.758,454.543C306.885,454.743 306.925,454.987 306.868,455.217C306.81,455.447 306.661,455.644 306.455,455.76C306.107,455.957 305.703,456.186 305.366,456.377ZM288.026,458.336C287.799,458.746 287.287,458.901 286.871,458.686C286.537,458.513 286.143,458.308 285.801,458.131C285.589,458.021 285.432,457.828 285.367,457.599C285.302,457.369 285.335,457.123 285.458,456.918C286.745,454.753 287.957,452.347 289.091,449.702C289.277,449.267 289.778,449.062 290.215,449.242C290.565,449.385 290.976,449.554 291.33,449.699C291.547,449.788 291.719,449.962 291.805,450.181C291.892,450.399 291.885,450.643 291.788,450.857C290.634,453.384 289.38,455.877 288.026,458.336ZM287.26,427.432C287.031,427.432 286.811,427.341 286.649,427.179C286.487,427.016 286.396,426.797 286.396,426.567L286.396,425.465C286.396,425.235 286.487,425.015 286.649,424.853C286.811,424.691 287.031,424.6 287.26,424.6L294.512,424.6C294.798,424.6 295.064,424.459 295.226,424.224C295.387,423.989 295.422,423.689 295.319,423.423C294.979,422.544 294.661,421.737 294.366,421.002C294.269,420.759 294.286,420.486 294.413,420.258C294.54,420.03 294.763,419.871 295.02,419.826C295.542,419.736 296.158,419.628 296.624,419.547C297.035,419.476 297.438,419.708 297.583,420.1C298.019,421.281 298.501,422.592 299.03,424.033C299.155,424.373 299.479,424.6 299.841,424.6C301.233,424.6 304.668,424.6 306.283,424.6C306.761,424.6 307.148,424.987 307.148,425.465L307.148,426.567C307.148,426.797 307.057,427.016 306.895,427.179C306.732,427.341 306.512,427.432 306.283,427.432L287.26,427.432ZM285.893,438.125C285.664,438.125 285.444,438.034 285.282,437.872C285.12,437.71 285.029,437.49 285.029,437.261L285.029,436.207C285.029,435.977 285.12,435.757 285.282,435.595C285.444,435.433 285.664,435.342 285.893,435.342L297.584,435.342C297.884,435.342 298.162,435.187 298.32,434.931C299.573,432.897 300.722,430.897 301.766,428.933C301.968,428.549 302.424,428.375 302.831,428.526C303.224,428.672 303.719,428.856 304.15,429.016C304.394,429.106 304.584,429.302 304.668,429.548C304.752,429.794 304.72,430.065 304.582,430.285C303.78,431.566 302.996,432.809 302.231,434.014C302.062,434.28 302.051,434.617 302.203,434.894C302.355,435.17 302.646,435.342 302.961,435.342C304.328,435.342 306.255,435.342 307.357,435.342C307.587,435.342 307.807,435.433 307.969,435.595C308.131,435.757 308.222,435.977 308.222,436.207L308.222,437.261C308.222,437.49 308.131,437.71 307.969,437.872C307.807,438.034 307.587,438.125 307.357,438.125L285.893,438.125ZM287.114,446.426C286.885,446.426 286.665,446.335 286.503,446.173C286.34,446.011 286.249,445.791 286.249,445.561L286.249,444.507C286.249,444.278 286.34,444.058 286.503,443.896C286.665,443.734 286.885,443.643 287.114,443.643L294.516,443.643C294.993,443.643 295.38,443.256 295.38,442.778L295.38,439.771C295.38,439.542 295.471,439.322 295.633,439.16C295.796,438.998 296.016,438.906 296.245,438.906L297.689,438.906C297.919,438.906 298.139,438.998 298.301,439.16C298.463,439.322 298.554,439.542 298.554,439.771L298.554,442.778C298.554,443.256 298.941,443.643 299.419,443.643L306.283,443.643C306.761,443.643 307.148,444.03 307.148,444.507L307.148,445.561C307.148,446.039 306.761,446.426 306.283,446.426L299.419,446.426C298.941,446.426 298.554,446.813 298.554,447.291L298.554,457.734C298.554,457.748 298.554,457.761 298.555,457.775C298.71,461.114 297.082,462.849 293.671,462.979C292.786,463.006 291.667,463.022 290.312,463.026C289.89,463.028 289.528,462.723 289.457,462.306C289.384,461.889 289.294,461.461 289.187,461.021C289.123,460.759 289.187,460.481 289.358,460.272C289.529,460.062 289.788,459.945 290.058,459.955C290.92,459.985 291.766,460 292.597,460C294.482,460.033 295.41,459.124 295.38,457.274C295.38,457.269 295.38,457.264 295.38,457.26C295.38,457.018 295.38,449.816 295.38,447.291C295.38,446.813 294.993,446.426 294.516,446.426L287.114,446.426ZM321.684,463.516C321.455,463.516 321.235,463.425 321.073,463.263C320.911,463.1 320.82,462.881 320.82,462.651L320.82,440.601C320.82,440.124 320.433,439.737 319.955,439.737L314.555,439.737C314.078,439.737 313.691,440.124 313.691,440.601L313.691,440.906C313.691,440.908 313.691,440.909 313.691,440.911C313.723,446.216 313.292,450.569 312.397,453.97C311.576,457.09 310.269,459.984 308.475,462.653C308.346,462.842 308.147,462.973 307.921,463.016C307.695,463.058 307.462,463.009 307.272,462.879C306.814,462.567 306.332,462.246 305.826,461.917C305.627,461.787 305.49,461.581 305.447,461.347C305.404,461.113 305.46,460.872 305.601,460.68C307.299,458.34 308.531,455.785 309.296,453.018C310.207,449.926 310.647,445.842 310.615,440.765C310.615,440.763 310.615,440.761 310.615,440.759C310.615,440.55 310.615,427.504 310.615,424.059C310.615,423.597 310.977,423.217 311.439,423.195C316.959,422.932 322.116,422.401 326.912,421.602C327.338,421.53 327.752,421.784 327.881,422.196C328.014,422.62 328.183,423.162 328.327,423.624C328.403,423.867 328.368,424.131 328.232,424.346C328.095,424.561 327.871,424.705 327.618,424.739C323.32,425.317 318.946,425.758 314.497,426.06C314.043,426.091 313.691,426.468 313.691,426.923C313.691,428.884 313.691,433.877 313.691,435.893C313.691,436.371 314.078,436.758 314.555,436.758L328.939,436.758C329.417,436.758 329.804,437.145 329.804,437.623L329.804,438.872C329.804,439.101 329.713,439.321 329.551,439.483C329.389,439.645 329.169,439.737 328.939,439.737L324.76,439.737C324.531,439.737 324.311,439.828 324.149,439.99C323.987,440.152 323.896,440.372 323.896,440.601L323.896,462.651C323.896,462.881 323.805,463.1 323.643,463.263C323.48,463.425 323.26,463.516 323.031,463.516L321.684,463.516Z" style="fill:white;fill-rule:nonzero;"/>
        </g>
        <g transform="matrix(14.4565,0,0,14.4565,-3931.8,-5870.1)">
            <path d="M292.859,434.835C292.444,435.061 291.925,434.913 291.692,434.502C290.831,432.983 289.962,431.561 289.083,430.234C288.947,430.03 288.904,429.777 288.965,429.539C289.027,429.301 289.186,429.101 289.404,428.987C289.728,428.819 290.091,428.63 290.397,428.472C290.788,428.269 291.269,428.392 291.514,428.758C292.422,430.116 293.348,431.53 294.293,432.997C294.422,433.199 294.462,433.446 294.403,433.679C294.344,433.912 294.19,434.109 293.979,434.224C293.623,434.418 293.208,434.645 292.859,434.835ZM305.366,456.377C304.968,456.602 304.464,456.479 304.215,456.095C303.001,454.227 301.837,452.449 300.724,450.762C300.592,450.562 300.549,450.316 300.604,450.084C300.66,449.851 300.81,449.652 301.018,449.534C301.344,449.348 301.716,449.137 302.027,448.959C302.413,448.74 302.901,448.848 303.159,449.209C304.41,450.967 305.609,452.745 306.758,454.543C306.885,454.743 306.925,454.987 306.868,455.217C306.81,455.447 306.661,455.644 306.455,455.76C306.107,455.957 305.703,456.186 305.366,456.377ZM288.026,458.336C287.799,458.746 287.287,458.901 286.871,458.686C286.537,458.513 286.143,458.308 285.801,458.131C285.589,458.021 285.432,457.828 285.367,457.599C285.302,457.369 285.335,457.123 285.458,456.918C286.745,454.753 287.957,452.347 289.091,449.702C289.277,449.267 289.778,449.062 290.215,449.242C290.565,449.385 290.976,449.554 291.33,449.699C291.547,449.788 291.719,449.962 291.805,450.181C291.892,450.399 291.885,450.643 291.788,450.857C290.634,453.384 289.38,455.877 288.026,458.336ZM287.26,427.432C287.031,427.432 286.811,427.341 286.649,427.179C286.487,427.016 286.396,426.797 286.396,426.567L286.396,425.465C286.396,425.235 286.487,425.015 286.649,424.853C286.811,424.691 287.031,424.6 287.26,424.6L294.512,424.6C294.798,424.6 295.064,424.459 295.226,424.224C295.387,423.989 295.422,423.689 295.319,423.423C294.979,422.544 294.661,421.737 294.366,421.002C294.269,420.759 294.286,420.486 294.413,420.258C294.54,420.03 294.763,419.871 295.02,419.826C295.542,419.736 296.158,419.628 296.624,419.547C297.035,419.476 297.438,419.708 297.583,420.1C298.019,421.281 298.501,422.592 299.03,424.033C299.155,424.373 299.479,424.6 299.841,424.6C301.233,424.6 304.668,424.6 306.283,424.6C306.761,424.6 307.148,424.987 307.148,425.465L307.148,426.567C307.148,426.797 307.057,427.016 306.895,427.179C306.732,427.341 306.512,427.432 306.283,427.432L287.26,427.432ZM285.893,438.125C285.664,438.125 285.444,438.034 285.282,437.872C285.12,437.71 285.029,437.49 285.029,437.261L285.029,436.207C285.029,435.977 285.12,435.757 285.282,435.595C285.444,435.433 285.664,435.342 285.893,435.342L297.584,435.342C297.884,435.342 298.162,435.187 298.32,434.931C299.573,432.897 300.722,430.897 301.766,428.933C301.968,428.549 302.424,428.375 302.831,428.526C303.224,428.672 303.719,428.856 304.15,429.016C304.394,429.106 304.584,429.302 304.668,429.548C304.752,429.794 304.72,430.065 304.582,430.285C303.78,431.566 302.996,432.809 302.231,434.014C302.062,434.28 302.051,434.617 302.203,434.894C302.355,435.17 302.646,435.342 302.961,435.342C304.328,435.342 306.255,435.342 307.357,435.342C307.587,435.342 307.807,435.433 307.969,435.595C308.131,435.757 308.222,435.977 308.222,436.207L308.222,437.261C308.222,437.49 308.131,437.71 307.969,437.872C307.807,438.034 307.587,438.125 307.357,438.125L285.893,438.125ZM287.114,446.426C286.885,446.426 286.665,446.335 286.503,446.173C286.34,446.011 286.249,445.791 286.249,445.561L286.249,444.507C286.249,444.278 286.34,444.058 286.503,443.896C286.665,443.734 286.885,443.643 287.114,443.643L294.516,443.643C294.993,443.643 295.38,443.256 295.38,442.778L295.38,439.771C295.38,439.542 295.471,439.322 295.633,439.16C295.796,438.998 296.016,438.906 296.245,438.906L297.689,438.906C297.919,438.906 298.139,438.998 298.301,439.16C298.463,439.322 298.554,439.542 298.554,439.771L298.554,442.778C298.554,443.256 298.941,443.643 299.419,443.643L306.283,443.643C306.761,443.643 307.148,444.03 307.148,444.507L307.148,445.561C307.148,446.039 306.761,446.426 306.283,446.426L299.419,446.426C298.941,446.426 298.554,446.813 298.554,447.291L298.554,457.734C298.554,457.748 298.554,457.761 298.555,457.775C298.71,461.114 297.082,462.849 293.671,462.979C292.786,463.006 291.667,463.022 290.312,463.026C289.89,463.028 289.528,462.723 289.457,462.306C289.384,461.889 289.294,461.461 289.187,461.021C289.123,460.759 289.187,460.481 289.358,460.272C289.529,460.062 289.788,459.945 290.058,459.955C290.92,459.985 291.766,460 292.597,460C294.482,460.033 295.41,459.124 295.38,457.274C295.38,457.269 295.38,457.264 295.38,457.26C295.38,457.018 295.38,449.816 295.38,447.291C295.38,446.813 294.993,446.426 294.516,446.426L287.114,446.426ZM321.684,463.516C321.455,463.516 321.235,463.425 321.073,463.263C320.911,463.1 320.82,462.881 320.82,462.651L320.82,440.601C320.82,440.124 320.433,439.737 319.955,439.737L314.555,439.737C314.078,439.737 313.691,440.124 313.691,440.601L313.691,440.906C313.691,440.908 313.691,440.909 313.691,440.911C313.723,446.216 313.292,450.569 312.397,453.97C311.576,457.09 310.269,459.984 308.475,462.653C308.346,462.842 308.147,462.973 307.921,463.016C307.695,463.058 307.462,463.009 307.272,462.879C306.814,462.567 306.332,462.246 305.826,461.917C305.627,461.787 305.49,461.581 305.447,461.347C305.404,461.113 305.46,460.872 305.601,460.68C307.299,458.34 308.531,455.785 309.296,453.018C310.207,449.926 310.647,445.842 310.615,440.765C310.615,440.763 310.615,440.761 310.615,440.759C310.615,440.55 310.615,427.504 310.615,424.059C310.615,423.597 310.977,423.217 311.439,423.195C316.959,422.932 322.116,422.401 326.912,421.602C327.338,421.53 327.752,421.784 327.881,422.196C328.014,422.62 328.183,423.162 328.327,423.624C328.403,423.867 328.368,424.131 328.232,424.346C328.095,424.561 327.871,424.705 327.618,424.739C323.32,425.317 318.946,425.758 314.497,426.06C314.043,426.091 313.691,426.468 313.691,426.923C313.691,428.884 313.691,433.877 313.691,435.893C313.691,436.371 314.078,436.758 314.555,436.758L328.939,436.758C329.417,436.758 329.804,437.145 329.804,437.623L329.804,438.872C329.804,439.101 329.713,439.321 329.551,439.483C329.389,439.645 329.169,439.737 328.939,439.737L324.76,439.737C324.531,439.737 324.311,439.828 324.149,439.99C323.987,440.152 323.896,440.372 323.896,440.601L323.896,462.651C323.896,462.881 323.805,463.1 323.643,463.263C323.48,463.425 323.26,463.516 323.031,463.516L321.684,463.516Z" style="fill:none;fill-rule:nonzero;stroke:black;stroke-width:0.43px;"/>
        </g>
    </g>
    <defs>
        <linearGradient id="_Linear1" x1="0" y1="0" x2="1" y2="0" gradientUnits="userSpaceOnUse" gradientTransform="matrix(593.316,601.624,-593.316,601.624,207.555,203.292)"><stop offset="0" style="stop-color:rgb(245,78,162);stop-opacity:1"/><stop offset="1" style="stop-color:rgb(255,118,118);stop-opacity:1"/></linearGradient>
    </defs>
</svg>
