<?xml version="1.0" encoding="UTF-8" standalone="no"?>
<!DOCTYPE svg PUBLIC "-//W3C//DTD SVG 1.1//EN" "http://www.w3.org/Graphics/SVG/1.1/DTD/svg11.dtd">
<svg width="100%" height="100%" viewBox="0 0 1024 1024" version="1.1" xmlns="http://www.w3.org/2000/svg" xmlns:xlink="http://www.w3.org/1999/xlink" xml:space="preserve" xmlns:serif="http://www.serif.com/" style="fill-rule:evenodd;clip-rule:evenodd;stroke-linejoin:round;stroke-miterlimit:2;">
    <path d="M661.333,14.222C743.716,14.222 810.667,81.173 810.667,163.556C810.667,163.556 810.667,428.976 810.622,503.311C810.622,507.829 808.571,512.103 805.045,514.929C801.519,517.755 796.901,518.827 792.491,517.843C774.286,513.948 755.352,512 736,512C584.676,512 462.222,634.453 462.222,785.778C462.187,861.242 493.4,932.842 547.331,984.01C551.765,988.215 553.189,994.697 550.927,1000.37C548.664,1006.05 543.172,1009.77 537.062,1009.78L213.333,1009.78C130.951,1009.78 64,942.827 64,860.444L64,163.556C64,81.173 130.951,14.222 213.333,14.222L661.333,14.222ZM690.379,275.556C710.859,275.556 727.712,258.703 727.712,238.222C727.712,217.742 710.859,200.889 690.379,200.889L192.601,200.889C172.12,200.889 155.268,217.742 155.268,238.222C155.268,258.703 172.12,275.556 192.601,275.556L690.379,275.556ZM391.712,437.333C412.192,437.333 429.045,420.48 429.045,400C429.045,379.52 412.192,362.667 391.712,362.667L192.601,362.667C172.12,362.667 155.268,379.52 155.268,400C155.268,420.48 172.12,437.333 192.601,437.333L391.712,437.333ZM810.667,574.72C897.778,605.333 960,688.213 960,785.778C960,908.661 858.883,1009.78 736,1009.78C721.813,1009.78 708.124,1008.53 694.684,1006.04C590.649,986.631 512,895.289 512,785.778C512,662.895 613.117,561.778 736,561.778C761.451,561.721 786.719,566.1 810.667,574.72ZM808.012,847.136C818.449,847.136 827.248,840.799 830.466,830.931C833.644,821.21 830.328,810.978 822.03,804.906L811.896,797.5C809.66,795.872 808.326,793.272 808.326,790.555L808.326,754.299C808.326,735.17 800.792,717.219 787.108,703.701C773.453,690.203 755.315,682.777 736,682.777C716.685,682.777 698.547,690.203 684.892,703.701C671.208,717.219 663.674,735.17 663.674,754.299L663.674,790.584C663.674,793.292 662.34,795.891 660.104,797.529L649.97,804.926C641.672,810.998 638.356,821.229 641.534,830.95C644.752,840.799 653.58,847.136 663.988,847.136L808.012,847.136ZM736,697.492C767.773,697.492 793.611,722.967 793.572,754.299L793.572,790.555C793.572,797.961 797.153,804.994 803.156,809.389L813.299,816.795C818.008,820.219 816.909,824.996 816.448,826.379C815.506,829.302 812.769,832.422 807.982,832.422L663.969,832.422C659.191,832.422 656.474,829.302 655.513,826.379C655.071,824.996 653.963,820.238 658.662,816.795L668.795,809.389C674.798,804.994 678.389,797.961 678.389,790.555L678.389,754.299C678.389,722.967 704.227,697.492 736,697.492ZM729.879,775.285L729.879,803.158C729.879,806.526 732.639,809.285 736.006,809.285C739.373,809.285 742.133,806.526 742.133,803.158L742.133,775.285L770.006,775.285C773.373,775.285 776.133,772.525 776.133,769.158C776.133,765.791 773.373,763.032 770.006,763.032L742.133,763.032L742.133,735.158C742.133,731.791 739.373,729.032 736.006,729.032C732.639,729.032 729.879,731.791 729.879,735.158L729.879,763.032L702.006,763.032C698.639,763.032 695.879,765.791 695.879,769.158C695.879,772.525 698.639,775.285 702.006,775.285L729.879,775.285ZM734.99,888.778C752.411,888.778 768.852,881.126 780.074,867.766C782.693,864.656 782.281,860.016 779.182,857.397C776.072,854.778 771.432,855.19 768.813,858.29C760.396,868.315 748.066,874.063 734.99,874.063C721.904,874.063 709.583,868.315 701.166,858.29C698.547,855.19 693.907,854.778 690.798,857.397C687.698,860.016 687.286,864.656 689.905,867.766C701.127,881.126 717.558,888.778 734.99,888.778Z" style="fill:rgb(3,103,253);"/>
</svg>
