<?xml version="1.0" encoding="UTF-8" standalone="no"?>
<!DOCTYPE svg PUBLIC "-//W3C//DTD SVG 1.1//EN" "http://www.w3.org/Graphics/SVG/1.1/DTD/svg11.dtd">
<svg width="100%" height="100%" viewBox="0 0 1024 1024" version="1.1" xmlns="http://www.w3.org/2000/svg" xmlns:xlink="http://www.w3.org/1999/xlink" xml:space="preserve" xmlns:serif="http://www.serif.com/" style="fill-rule:evenodd;clip-rule:evenodd;stroke-linejoin:round;stroke-miterlimit:2;">
    <g transform="matrix(1,0,0,1,0,0.0924773)">
        <path d="M227.548,275.536C244.112,275.536 257.541,288.963 257.541,305.528L257.541,993.822C257.541,1010.39 244.112,1023.82 227.548,1023.82L29.993,1023.82C13.429,1023.82 0,1010.39 0,993.822L0,305.526C0.003,288.964 13.43,275.536 29.993,275.536L227.548,275.536ZM187.558,345.519L69.983,345.519L69.983,953.832L187.558,953.832L187.558,345.519ZM594.94,0C611.504,0 624.932,13.429 624.932,29.993L624.932,993.821C624.932,1010.38 611.504,1023.81 594.94,1023.81L398.384,1023.81C381.82,1023.81 368.391,1010.38 368.391,993.821L368.391,29.993C368.391,13.429 381.82,0 398.384,0L594.94,0ZM554.95,69.983L438.374,69.983L438.374,953.831L554.95,953.831L554.95,69.983ZM757.993,729.963C740.807,729.963 725.816,717.297 723.379,699.791L660.706,249.512L660.652,249.031C656.957,215.763 681.014,185.69 714.28,181.992L874.958,164.127C908.032,160.446 937.952,184.205 941.934,217.174L1004.49,666.595C1007.15,685.737 993.796,703.412 974.655,706.077C955.512,708.738 937.838,695.384 935.174,676.243L873.712,234.68L731.498,250.491L792.694,690.144C795.359,709.285 782.002,726.961 762.861,729.625C761.248,729.849 759.621,729.962 757.993,729.963ZM832.547,902.28L746.068,902.28C726.743,902.28 711.076,886.614 711.076,867.288C711.076,847.963 726.743,832.297 746.068,832.297L832.547,832.297L832.547,745.818C832.547,726.493 848.213,710.826 867.538,710.826C886.863,710.826 902.53,726.493 902.53,745.818L902.53,832.297L989.009,832.297C1008.33,832.297 1024,847.963 1024,867.288C1024,886.614 1008.33,902.28 989.009,902.28L902.53,902.28L902.53,988.759C902.53,1008.08 886.863,1023.75 867.538,1023.75C848.213,1023.75 832.547,1008.08 832.547,988.759L832.547,902.28Z"/>
    </g>
</svg>
