<?xml version="1.0" encoding="UTF-8" standalone="no"?>
<!DOCTYPE svg PUBLIC "-//W3C//DTD SVG 1.1//EN" "http://www.w3.org/Graphics/SVG/1.1/DTD/svg11.dtd">
<svg width="100%" height="100%" viewBox="0 0 1024 1024" version="1.1" xmlns="http://www.w3.org/2000/svg" xmlns:xlink="http://www.w3.org/1999/xlink" xml:space="preserve" xmlns:serif="http://www.serif.com/" style="fill-rule:evenodd;clip-rule:evenodd;stroke-linejoin:round;stroke-miterlimit:2;">
    <g transform="matrix(43.8073,0,0,43.8073,-13.6879,-13.6879)">
        <path d="M23.688,16.59L23.688,20.766C23.688,21.113 23.568,21.411 23.322,21.651C23.077,21.896 22.782,22.016 22.437,22.016L18.262,22.016C17.914,22.016 17.616,21.896 17.376,21.651C17.131,21.406 17.011,21.11 17.011,20.766L17.011,16.59C17.011,16.243 17.131,15.945 17.376,15.705C17.622,15.46 17.917,15.34 18.262,15.34L19.512,15.34L19.512,12.836L12.833,12.836L12.833,15.34L14.083,15.34C14.431,15.34 14.729,15.46 14.969,15.705C15.214,15.95 15.334,16.245 15.334,16.59L15.334,20.766C15.334,21.113 15.214,21.411 14.969,21.651C14.723,21.896 14.428,22.016 14.083,22.016L9.911,22.016C9.563,22.016 9.265,21.896 9.026,21.651C8.78,21.406 8.66,21.11 8.66,20.766L8.66,16.59C8.66,16.243 8.78,15.945 9.026,15.705C9.271,15.46 9.566,15.34 9.911,15.34L11.161,15.34L11.161,12.836L4.485,12.836L4.485,15.34L5.735,15.34C6.083,15.34 6.381,15.46 6.621,15.705C6.866,15.95 6.986,16.245 6.986,16.59L6.986,20.766C6.986,21.113 6.866,21.411 6.621,21.651C6.375,21.896 6.08,22.016 5.735,22.016L1.563,22.016C1.215,22.016 0.917,21.896 0.678,21.651C0.432,21.408 0.312,21.113 0.312,20.766L0.312,16.59C0.312,16.243 0.432,15.945 0.678,15.705C0.923,15.46 1.218,15.34 1.563,15.34L2.814,15.34L2.814,12.836C2.814,12.383 2.977,11.994 3.31,11.661C3.64,11.331 4.032,11.164 4.485,11.164L11.161,11.164L11.161,8.66L9.911,8.66C9.563,8.66 9.265,8.54 9.026,8.295C8.78,8.05 8.66,7.755 8.66,7.41L8.66,3.234C8.66,2.887 8.78,2.589 9.026,2.349C9.271,2.104 9.566,1.984 9.911,1.984L14.083,1.984C14.431,1.984 14.729,2.104 14.969,2.349C15.214,2.594 15.334,2.89 15.334,3.234L15.334,7.41C15.334,7.757 15.214,8.055 14.969,8.295C14.723,8.54 14.428,8.66 14.083,8.66L12.833,8.66L12.833,11.164L19.509,11.164C19.962,11.164 20.351,11.328 20.684,11.661C21.014,11.994 21.181,12.383 21.181,12.836L21.181,15.34L22.431,15.34C22.779,15.34 23.077,15.46 23.316,15.705C23.568,15.95 23.688,16.243 23.688,16.59Z" style="fill-rule:nonzero;"/>
    </g>
</svg>
