<?xml version="1.0" encoding="UTF-8" standalone="no"?>
<!DOCTYPE svg PUBLIC "-//W3C//DTD SVG 1.1//EN" "http://www.w3.org/Graphics/SVG/1.1/DTD/svg11.dtd">
<svg width="100%" height="100%" viewBox="0 0 1024 1024" version="1.1" xmlns="http://www.w3.org/2000/svg" xmlns:xlink="http://www.w3.org/1999/xlink" xml:space="preserve" xmlns:serif="http://www.serif.com/" style="fill-rule:evenodd;clip-rule:evenodd;stroke-linejoin:round;stroke-miterlimit:2;">
    <g transform="matrix(52.0325,0,0,52.0325,-124.878,-124.878)">
        <path d="M11.402,4.694L11.402,8.014C10.741,7.947 10.09,7.799 9.464,7.572C9.623,7.135 9.8,6.733 9.994,6.376C10.352,5.708 10.769,5.177 11.196,4.841C11.267,4.787 11.334,4.738 11.402,4.694ZM11.4,16.465L11.4,19.784C11.329,19.739 11.261,19.69 11.195,19.638C10.765,19.298 10.349,18.767 9.992,18.103C9.788,17.717 9.611,17.317 9.463,16.906C10.089,16.681 10.739,16.533 11.4,16.465ZM4.468,11.4C4.617,9.988 5.152,8.645 6.012,7.516C6.461,7.884 6.941,8.21 7.446,8.492C7.231,9.413 7.098,10.388 7.05,11.4L4.468,11.4ZM7.169,6.292C7.633,5.893 8.141,5.554 8.684,5.276C8.408,5.744 8.161,6.268 7.945,6.839C7.676,6.671 7.417,6.489 7.169,6.292ZM7.945,17.642C8.16,18.211 8.407,18.734 8.684,19.205C8.141,18.926 7.633,18.585 7.169,18.188C7.416,17.993 7.675,17.81 7.945,17.642ZM8.73,13.08L11.4,13.08L11.4,14.779C10.586,14.847 9.783,15.017 9.011,15.286C8.862,14.558 8.768,13.821 8.73,13.08ZM9.012,9.196C9.782,9.463 10.584,9.632 11.4,9.701L11.4,11.4L8.73,11.4C8.77,10.652 8.863,9.917 9.012,9.196ZM7.446,15.988C6.94,16.269 6.46,16.596 6.012,16.964C5.151,15.836 4.617,14.492 4.468,13.08L7.05,13.08C7.098,14.092 7.231,15.067 7.446,15.988ZM15.469,15.286C14.697,15.017 13.894,14.847 13.08,14.779L13.08,13.08L15.75,13.08C15.712,13.828 15.618,14.562 15.469,15.286ZM13.08,8.014L13.08,4.697C13.15,4.74 13.218,4.789 13.285,4.842C13.715,5.182 14.13,5.711 14.486,6.376C14.681,6.738 14.858,7.14 15.016,7.572C14.391,7.798 13.741,7.946 13.08,8.014ZM16.535,6.838C16.335,6.296 16.088,5.774 15.796,5.276C16.339,5.554 16.847,5.893 17.312,6.292C17.064,6.488 16.804,6.671 16.535,6.838ZM15.75,11.4L13.08,11.4L13.08,9.701C13.895,9.633 14.698,9.463 15.47,9.196C15.617,9.907 15.712,10.646 15.75,11.4ZM17.312,18.188C16.848,18.585 16.339,18.926 15.796,19.205C16.073,18.736 16.32,18.212 16.535,17.641C16.802,17.808 17.063,17.99 17.312,18.188ZM15.017,16.908C14.869,17.32 14.692,17.72 14.486,18.106C14.13,18.768 13.716,19.298 13.286,19.639C13.22,19.691 13.151,19.74 13.08,19.786L13.08,16.465C13.74,16.534 14.389,16.681 15.017,16.908ZM17.034,15.988C17.249,15.067 17.382,14.092 17.43,13.08L20.014,13.08C19.862,14.491 19.328,15.835 18.469,16.964C18.021,16.596 17.541,16.269 17.034,15.988ZM18.469,7.516C19.329,8.645 19.863,9.989 20.014,11.4L17.43,11.4C17.386,10.421 17.254,9.448 17.034,8.492C17.54,8.21 18.02,7.883 18.469,7.516ZM22.08,12.24C22.078,9.919 21.257,7.672 19.763,5.896L19.424,5.515C19.369,5.456 19.312,5.397 19.254,5.34L19.075,5.164L18.911,5.338L19.01,5.101L18.923,5.018C17.107,3.333 14.718,2.396 12.24,2.4C9.752,2.398 7.355,3.342 5.536,5.039L5.222,5.344C5.08,5.488 4.942,5.637 4.81,5.79L4.7,5.916C3.215,7.688 2.401,9.928 2.4,12.24C2.4,14.551 3.218,16.798 4.715,18.583L4.91,18.811C5.022,18.935 5.137,19.057 5.255,19.175L5.329,19.252C7.17,21.066 9.655,22.083 12.24,22.08C14.828,22.083 17.314,21.063 19.153,19.242L19.268,19.126C19.337,19.058 19.403,18.986 19.474,18.91L19.633,18.75L19.633,18.732L19.682,18.674C19.71,18.644 19.737,18.614 19.764,18.583L19.577,18.431L19.776,18.566C21.264,16.795 22.08,14.554 22.08,12.24Z" style="fill-rule:nonzero;"/>
    </g>
</svg>
