<?xml version="1.0" encoding="UTF-8" standalone="no"?>
<!DOCTYPE svg PUBLIC "-//W3C//DTD SVG 1.1//EN" "http://www.w3.org/Graphics/SVG/1.1/DTD/svg11.dtd">
<svg width="100%" height="100%" viewBox="0 0 1024 1024" version="1.1" xmlns="http://www.w3.org/2000/svg" xmlns:xlink="http://www.w3.org/1999/xlink" xml:space="preserve" xmlns:serif="http://www.serif.com/" style="fill-rule:evenodd;clip-rule:evenodd;stroke-linejoin:round;stroke-miterlimit:2;">
    <g transform="matrix(1.46286,0,0,1.46286,-394.971,-336.457)">
        <path d="M970,317.5C970,269.175 930.825,230 882.5,230L357.5,230C309.175,230 270,269.175 270,317.5L270,842.5C270,890.825 309.175,930 357.5,930L882.5,930C930.825,930 970,890.825 970,842.5L970,317.5Z" style="fill:url(#_Linear1);"/>
    </g>
    <g id="图层1" transform="matrix(4.93747,0,0,4.93747,-1672.86,-1472.92)">
        <g transform="matrix(1,0,0,1,342.79,302.051)">
            <path d="M29.297,99.961C29.297,137.258 59.988,167.949 97.285,167.949C134.582,167.949 165.273,137.258 165.273,99.961C165.273,62.664 134.582,31.973 97.285,31.973C59.988,31.973 29.297,62.664 29.297,99.961Z" style="fill:rgb(229,236,255);fill-rule:nonzero;"/>
        </g>
        <g transform="matrix(1,0,0,1,342.79,302.051)">
            <path d="M81.113,145.293C61.68,135.586 34.16,137.207 51.973,99.961C58.184,86.953 46.465,80.547 32.773,78.516C30.527,85.254 29.297,92.461 29.297,99.961C29.297,136.113 57.52,165.645 93.125,167.813C93.77,160.469 92.129,150.801 81.113,145.293ZM123.203,95.117C123.203,95.117 131.289,104.824 118.34,108.066C105.391,111.309 97.305,117.773 100.527,130.723C103.75,143.672 100.527,143.672 118.34,142.051C136.152,140.43 140.996,124.238 140.996,121.016C140.996,117.773 145.859,99.98 136.133,95.117C126.426,90.254 124.805,87.012 123.203,95.117Z" style="fill:rgb(91,121,251);fill-rule:nonzero;"/>
        </g>
        <g transform="matrix(1,0,0,1,342.79,302.051)">
            <path d="M187.09,85.957C185.859,77.109 175.488,70.762 157.109,67.578L157.07,67.578C158.34,69.922 159.473,72.344 160.469,74.844C172.52,77.52 179.98,81.895 180.684,86.855C181.465,92.402 173.926,99.57 160.508,106.035C145.625,113.223 125.215,118.887 103.047,121.992C80.879,125.098 59.707,125.254 43.418,122.441C28.75,119.902 19.512,115.078 18.75,109.551C18.184,105.469 22.129,100.508 29.629,95.586C29.59,95.527 29.531,95.488 29.492,95.449C29.668,92.734 30.02,90.078 30.508,87.48C17.52,94.785 11.25,102.676 12.344,110.469C13.574,119.316 23.945,125.664 42.324,128.848C50.41,130.234 59.609,130.938 69.492,130.938C80.332,130.938 92.012,130.098 103.945,128.438C126.758,125.234 147.832,119.375 163.32,111.895C180.098,103.77 188.32,94.805 187.09,85.957Z" style="fill:rgb(255,126,113);fill-rule:nonzero;"/>
        </g>
        <g transform="matrix(1,0,0,1,342.79,302.051)">
            <path d="M100.566,32.051C99.492,32.012 98.398,31.973 97.305,31.973C72.812,31.973 51.367,44.922 39.395,64.336C49.824,64.219 58.516,59.336 60.977,52.754C62.793,52.93 64.648,53.027 66.543,53.027C78.125,53.027 88.398,49.629 94.883,44.375C96.66,45.723 99.258,46.562 102.148,46.562C102.266,46.562 102.363,46.562 102.461,46.543C103.516,51.621 108.242,65.742 127.969,65.254C127.969,65.254 139.98,64.961 145.566,89.277C145.566,89.277 158.086,94.277 161.563,77.793C152.715,52.109 128.926,33.398 100.566,32.051Z" style="fill:rgb(164,190,255);fill-rule:nonzero;"/>
        </g>
        <g transform="matrix(1,0,0,1,342.79,302.051)">
            <path d="M85.957,70.02C85.957,73.127 88.884,75.684 92.441,75.684C95.999,75.684 98.926,73.127 98.926,70.02C98.926,66.912 95.999,64.355 92.441,64.355C88.884,64.355 85.957,66.912 85.957,70.02Z" style="fill:rgb(131,164,255);fill-rule:nonzero;"/>
        </g>
        <g transform="matrix(1,0,0,1,342.79,302.051)">
            <path d="M104.769,71.981C106.562,73.287 108.681,73.478 109.463,72.404C110.245,71.331 109.414,69.372 107.622,68.066C105.829,66.76 103.71,66.569 102.928,67.643C102.145,68.716 102.977,70.675 104.769,71.981Z" style="fill:rgb(164,190,255);fill-rule:nonzero;"/>
        </g>
    </g>
    <defs>
        <linearGradient id="_Linear1" x1="0" y1="0" x2="1" y2="0" gradientUnits="userSpaceOnUse" gradientTransform="matrix(700,700,-700,700,270,230)"><stop offset="0" style="stop-color:rgb(196,204,243);stop-opacity:1"/><stop offset="1" style="stop-color:rgb(130,199,255);stop-opacity:1"/></linearGradient>
    </defs>
</svg>
