<?xml version="1.0" encoding="UTF-8" standalone="no"?>
<!DOCTYPE svg PUBLIC "-//W3C//DTD SVG 1.1//EN" "http://www.w3.org/Graphics/SVG/1.1/DTD/svg11.dtd">
<svg width="100%" height="100%" viewBox="0 0 1024 1024" version="1.1" xmlns="http://www.w3.org/2000/svg" xmlns:xlink="http://www.w3.org/1999/xlink" xml:space="preserve" xmlns:serif="http://www.serif.com/" style="fill-rule:evenodd;clip-rule:evenodd;stroke-linejoin:round;stroke-miterlimit:2;">
    <path d="M1024,96L1024,928C1024,981.019 981.019,1024 928,1024L96,1024C42.981,1024 0,981.019 0,928L0,96C0,42.981 42.981,0 96,0L928,0C981.019,0 1024,42.981 1024,96ZM948,512C947.905,409.16 911.535,309.579 845.327,230.886L830.333,214.031C827.871,211.391 825.354,208.803 822.783,206.268L814.86,198.452L807.576,206.162L811.989,195.687L808.108,192.019C727.65,117.322 621.786,75.843 512,76C401.777,75.931 295.542,117.745 214.935,192.922L201.058,206.428C194.744,212.817 188.643,219.414 182.767,226.207L177.928,231.79C112.125,310.312 76.026,409.551 76,512C76,614.407 112.262,713.942 178.566,793.061L187.233,803.163C192.174,808.67 197.262,814.042 202.493,819.274L205.79,822.677C287.373,903.07 397.462,948.127 512,948C626.656,948.151 736.838,902.919 818.317,822.251L823.421,817.094C826.452,814.116 829.376,810.926 832.513,807.523L839.585,800.451L839.585,799.654L841.765,797.101C842.989,795.772 844.195,794.425 845.38,793.061L837.086,786.308L845.912,792.316C911.837,713.812 948,614.513 948,512ZM356.476,549.22L474.78,549.22L474.78,624.509C438.691,627.514 403.123,635.053 368.918,646.947C362.334,614.728 358.175,582.061 356.476,549.22ZM474.78,699.214L474.78,846.284C471.654,844.259 468.621,842.095 465.688,839.798C446.653,824.75 428.203,801.196 412.411,771.792C403.344,754.684 395.508,736.951 388.963,718.728C416.67,708.763 445.489,702.21 474.78,699.214ZM321.702,751.375C331.22,776.578 342.173,799.76 354.455,820.603C330.389,808.264 307.851,793.149 287.3,775.567C298.254,766.901 309.739,758.819 321.702,751.375ZM167.613,474.781C174.254,412.236 197.926,352.696 236.044,302.667C255.93,318.99 277.198,333.453 299.583,345.948C290.065,386.73 284.163,429.958 282.037,474.781L167.613,474.781ZM655.082,646.947C620.875,635.058 585.308,627.52 549.22,624.509L549.22,549.22L667.524,549.22C665.823,582.345 661.676,614.885 655.082,646.947ZM549.22,324.733L549.22,177.769C552.303,179.683 555.334,181.863 558.312,184.202C577.347,199.25 595.744,222.698 611.536,252.155C620.149,268.212 628.019,286.024 634.984,305.166C607.308,315.185 578.503,321.757 549.22,324.733ZM299.583,678.052C277.147,690.543 255.882,705.028 236.044,721.333C197.895,671.322 174.219,611.772 167.613,549.22L282.037,549.22C284.163,594.042 290.065,637.27 299.583,678.052ZM474.887,177.662L474.887,324.733C445.565,321.784 416.721,315.211 389.016,305.166C396.035,285.812 403.904,268 412.464,252.155C428.362,222.592 446.813,199.037 465.741,184.149C468.879,181.757 471.856,179.577 474.887,177.662ZM287.3,248.433C307.878,230.78 330.369,215.733 354.455,203.45C342.226,224.187 331.273,247.369 321.702,272.679C309.781,265.26 298.295,257.165 287.3,248.433ZM368.971,377.106C403.106,388.963 438.624,396.46 474.78,399.491L474.78,474.781L356.476,474.781C358.23,441.655 362.378,409.061 368.971,377.106ZM724.417,678.052C733.935,637.27 739.837,594.042 741.963,549.22L856.44,549.22C849.741,611.749 826.075,671.274 788.009,721.333C768.153,705.028 746.87,690.543 724.417,678.052ZM788.009,302.667C826.098,352.712 849.768,412.244 856.44,474.781L741.963,474.781C740.026,431.394 734.153,388.272 724.417,345.948C746.847,333.42 768.127,318.937 788.009,302.667ZM736.753,775.567C716.175,793.138 693.62,808.251 669.545,820.603C681.827,799.813 692.78,776.631 702.298,751.321C714.155,758.712 725.693,766.794 736.753,775.567ZM635.037,718.834C628.499,737.068 620.645,754.803 611.536,771.899C595.744,801.249 577.4,824.75 558.365,839.851C555.422,842.159 552.37,844.323 549.22,846.338L549.22,699.214C578.463,702.245 607.229,708.785 635.037,718.834ZM702.298,272.625C693.439,248.647 682.479,225.499 669.545,203.45C693.631,215.733 716.122,230.78 736.753,248.433C725.737,257.145 714.233,265.222 702.298,272.625ZM667.524,474.781L549.22,474.781L549.22,399.491C585.32,396.476 620.902,388.956 655.136,377.106C661.622,408.636 665.823,441.389 667.524,474.781Z" style="fill:url(#_Linear1);"/>
    <defs>
        <linearGradient id="_Linear1" x1="0" y1="0" x2="1" y2="0" gradientUnits="userSpaceOnUse" gradientTransform="matrix(700,700,-700,700,270,230)"><stop offset="0" style="stop-color:rgb(196,204,243);stop-opacity:1"/><stop offset="1" style="stop-color:rgb(130,199,255);stop-opacity:1"/></linearGradient>
    </defs>
</svg>
