<?xml version="1.0" encoding="UTF-8" standalone="no"?>
<!DOCTYPE svg PUBLIC "-//W3C//DTD SVG 1.1//EN" "http://www.w3.org/Graphics/SVG/1.1/DTD/svg11.dtd">
<svg width="100%" height="100%" viewBox="0 0 1024 1024" version="1.1" xmlns="http://www.w3.org/2000/svg" xmlns:xlink="http://www.w3.org/1999/xlink" xml:space="preserve" xmlns:serif="http://www.serif.com/" style="fill-rule:evenodd;clip-rule:evenodd;stroke-linejoin:round;stroke-miterlimit:2;">
    <g transform="matrix(53.5228,0,0,53.5228,-129.255,-52.0714)">
        <path d="M4.877,2.369C4.874,2.018 5.025,1.683 5.291,1.454C5.557,1.225 5.909,1.123 6.256,1.177C8.26,1.478 10.23,1.974 11.69,3.428C12.024,3.758 12.521,3.862 12.959,3.694C15.396,2.751 17.955,2.809 20.481,3.507C20.994,3.648 21.352,4.11 21.36,4.641C21.4,7.179 21.516,14.602 21.567,17.928C21.573,18.304 21.401,18.662 21.103,18.892C20.805,19.123 20.416,19.199 20.053,19.099C17.124,18.29 15.399,18.452 12.298,19.444C11.948,19.555 11.566,19.499 11.263,19.293C9.047,17.785 6.585,18.315 4.156,19.044C3.797,19.149 3.41,19.08 3.109,18.857C2.809,18.634 2.63,18.284 2.626,17.91C2.579,13.845 2.461,3.434 2.461,3.434C2.456,3.047 3.628,2.932 3.635,3.511L3.813,16.247C3.818,16.641 4.992,16.561 4.988,16.146C4.988,16.146 4.907,6.103 4.877,2.369ZM13.854,8.147C13.854,8.147 13.854,8.147 13.854,8.147C13.53,8.363 13.282,8.965 13.889,9.077C13.889,9.077 13.889,9.077 13.889,9.077C14.033,9.103 14.15,9.036 14.431,8.93C14.435,8.928 14.44,8.926 14.445,8.924C15.156,8.634 15.682,8.59 16.467,8.632C16.467,8.632 16.467,8.632 16.467,8.632C17.109,8.667 18.323,9.302 18.811,9.19C18.811,9.19 18.811,9.19 18.812,9.19C19.202,9.1 19.186,8.693 18.912,8.508C18.912,8.508 18.912,8.508 18.912,8.508C18.195,8.018 17.177,7.765 16.275,7.699C16.274,7.699 16.274,7.699 16.273,7.699C15.575,7.65 14.475,7.732 13.854,8.147ZM13.627,5.838C13.627,5.838 13.626,5.838 13.626,5.839C13.237,6.108 12.949,6.848 13.69,6.968C13.69,6.968 13.69,6.968 13.69,6.968C13.867,6.998 14.007,6.913 14.346,6.776C14.351,6.774 14.356,6.772 14.361,6.77C15.222,6.4 15.858,6.333 16.814,6.368C16.814,6.368 16.814,6.368 16.814,6.368C17.597,6.396 19.088,7.141 19.678,6.994C19.678,6.994 19.678,6.994 19.678,6.994C20.154,6.874 20.123,6.382 19.786,6.162C19.786,6.162 19.785,6.161 19.785,6.161C18.901,5.583 17.66,5.297 16.561,5.238C16.559,5.238 16.558,5.238 16.556,5.238C15.705,5.197 14.371,5.321 13.627,5.838Z" style="fill-rule:nonzero;"/>
    </g>
</svg>
