<?xml version="1.0" encoding="UTF-8" standalone="no"?>
<!DOCTYPE svg PUBLIC "-//W3C//DTD SVG 1.1//EN" "http://www.w3.org/Graphics/SVG/1.1/DTD/svg11.dtd">
<svg width="100%" height="100%" viewBox="0 0 108 108" version="1.1" xmlns="http://www.w3.org/2000/svg" xmlns:xlink="http://www.w3.org/1999/xlink" xml:space="preserve" xmlns:serif="http://www.serif.com/" style="fill-rule:evenodd;clip-rule:evenodd;stroke-linejoin:round;stroke-miterlimit:2;">
    <path d="M103.754,33.865L81.783,39.724C83.511,35.475 84.375,31.961 84.375,29.093C84.375,13.051 70.75,0 54,0C37.25,0 23.625,13.051 23.625,29.092C23.625,31.961 24.489,35.475 26.22,39.724L4.246,33.865C3.963,33.79 3.671,33.752 3.378,33.752C1.527,33.752 0.003,35.274 0,37.125L0,97.875C0,99.399 1.032,100.742 2.504,101.135L27.817,107.885C28.1,107.959 28.38,107.993 28.661,107.997L28.684,108L28.718,108C28.995,107.993 29.275,107.959 29.558,107.885L54,101.368L78.442,107.885C78.725,107.959 79.005,107.993 79.286,107.997L79.309,108L79.343,108C79.62,107.993 79.9,107.959 80.183,107.885L105.496,101.135C106.968,100.742 108,99.399 108,97.875L108,37.125C107.997,35.274 106.473,33.752 104.622,33.752C104.329,33.752 104.037,33.79 103.754,33.865ZM27,100.683L6.75,95.283L6.75,41.519L27,46.919L27,100.683ZM52.313,94.831L30.375,100.683L30.375,48.364C38.37,63.129 50.78,78.985 51.347,79.707C51.422,79.802 51.53,79.836 51.611,79.92C51.722,80.035 51.786,80.173 51.914,80.274C52.036,80.372 52.181,80.413 52.313,80.49L52.313,94.831ZM77.625,100.683L55.688,94.831L55.688,80.494C55.819,80.416 55.964,80.376 56.086,80.278C56.214,80.177 56.278,80.038 56.39,79.923C56.471,79.839 56.579,79.805 56.653,79.711C57.22,78.989 69.63,63.133 77.625,48.367L77.625,100.683ZM73.521,41.634L73.514,41.641C68.023,52.802 58.58,65.927 54,72.05C49.42,65.927 39.984,52.812 34.486,41.641L34.479,41.634C31.087,34.763 30.375,31.023 30.375,29.092C30.375,16.774 40.973,6.75 54,6.75C67.028,6.75 77.625,16.774 77.625,29.093C77.625,31.023 76.916,34.763 73.521,41.634ZM101.25,95.283L81,100.683L81,46.919L101.25,41.519L101.25,95.283Z" style="fill:rgb(0,166,255);fill-rule:nonzero;"/>
    <path d="M81,29.092C81,32.737 79.211,37.733 76.545,43.133C68.884,58.691 54,77.625 54,77.625C54,77.625 39.116,58.691 31.455,43.133C28.789,37.733 27,32.737 27,29.092C27,14.884 39.083,3.375 54,3.375C68.918,3.375 81,14.884 81,29.093ZM62.1,29.902C62.1,25.515 58.489,21.938 54,21.938C49.511,21.938 45.9,25.515 45.9,29.902C45.9,34.29 49.511,37.834 54,37.834C58.489,37.834 62.1,34.29 62.1,29.902Z" style="fill:rgb(0,166,255);fill-rule:nonzero;"/>
</svg>
