<?xml version="1.0" encoding="UTF-8" standalone="no"?>
<!DOCTYPE svg PUBLIC "-//W3C//DTD SVG 1.1//EN" "http://www.w3.org/Graphics/SVG/1.1/DTD/svg11.dtd">
<svg width="100%" height="100%" viewBox="0 0 24 24" version="1.1" xmlns="http://www.w3.org/2000/svg" xmlns:xlink="http://www.w3.org/1999/xlink" xml:space="preserve" xmlns:serif="http://www.serif.com/" style="fill-rule:evenodd;clip-rule:evenodd;stroke-linejoin:round;stroke-miterlimit:2;">
    <g transform="matrix(1.4292,0,0,1.4292,-4.28759,-5.14879)">
        <path d="M12,5.998C12.549,5.998 13,6.449 13,6.998C13,7.546 12.549,7.998 12,7.998L4,7.998C3.451,7.998 3,7.546 3,6.998C3,6.449 3.451,5.998 4,5.998L12,5.998ZM10,10.999C10.549,10.999 11,11.45 11,11.999C11,12.547 10.549,12.999 10,12.999L4,12.999C3.451,12.999 3,12.547 3,11.999C3,11.45 3.451,10.999 4,10.999L10,10.999ZM10,16C10.549,16 11,16.451 11,17C11,17.549 10.549,18 10,18L4,18C3.451,18 3,17.549 3,17C3,16.451 3.451,16 4,16L10,16ZM15.647,9.507C16.134,9.508 16.549,9.876 16.606,10.36L16.613,10.473L16.613,13.371L19.31,13.371C19.412,13.371 19.511,13.403 19.593,13.463L19.651,13.512C19.816,13.676 19.84,13.937 19.707,14.128L19.651,14.196L15.989,17.859C15.824,18.023 15.564,18.047 15.372,17.915L15.305,17.859L11.642,14.196C11.551,14.105 11.5,13.982 11.5,13.854C11.5,13.622 11.668,13.421 11.896,13.379L11.983,13.371L14.681,13.371L14.681,10.473C14.681,9.944 15.117,9.507 15.647,9.507Z"/>
    </g>
</svg>
