<?xml version="1.0" encoding="UTF-8" standalone="no"?>
<!DOCTYPE svg PUBLIC "-//W3C//DTD SVG 1.1//EN" "http://www.w3.org/Graphics/SVG/1.1/DTD/svg11.dtd">
<svg width="100%" height="100%" viewBox="0 0 24 24" version="1.1" xmlns="http://www.w3.org/2000/svg" xmlns:xlink="http://www.w3.org/1999/xlink" xml:space="preserve" xmlns:serif="http://www.serif.com/" style="fill-rule:evenodd;clip-rule:evenodd;stroke-linejoin:round;stroke-miterlimit:2;">
    <g transform="matrix(2,0,0,2,-12,-12)">
        <path d="M10.366,17.424C9.994,17.786 9.505,17.988 8.995,17.988L6.5,17.988C6.361,17.988 6.234,17.935 6.138,17.839C6.043,17.743 6,17.616 6,17.477L6.064,14.96C6.074,14.461 6.276,13.994 6.627,13.643L11.694,8.577C11.782,8.492 11.924,8.492 12.012,8.577L13.785,10.34C13.902,10.457 14.072,10.531 14.253,10.531C14.646,10.531 14.954,10.212 14.954,9.831C14.954,9.639 14.88,9.469 14.763,9.342C14.731,9.299 13.042,7.621 13.042,7.621C12.935,7.515 12.935,7.334 13.042,7.228L13.754,6.506C14.069,6.19 14.497,6.012 14.944,6.012C15.39,6.012 15.818,6.19 16.134,6.506L17.514,7.886C18.162,8.535 18.162,9.596 17.514,10.255L10.366,17.424Z"/>
    </g>
</svg>
