<?xml version="1.0" encoding="UTF-8" standalone="no"?>
<!DOCTYPE svg PUBLIC "-//W3C//DTD SVG 1.1//EN" "http://www.w3.org/Graphics/SVG/1.1/DTD/svg11.dtd">
<svg width="100%" height="100%" viewBox="0 0 24 24" version="1.1" xmlns="http://www.w3.org/2000/svg" xmlns:xlink="http://www.w3.org/1999/xlink" xml:space="preserve" xmlns:serif="http://www.serif.com/" style="fill-rule:evenodd;clip-rule:evenodd;stroke-linejoin:round;stroke-miterlimit:2;">
    <g transform="matrix(1.43856,0,0,1.43856,-2.14068,-2.4)">
        <g id="图层3">
            <clipPath id="_clip1">
                <circle cx="9.83" cy="10.01" r="8.342"/>
            </clipPath>
            <g clip-path="url(#_clip1)">
                <g opacity="0.8">
                    <circle cx="9.83" cy="10.01" r="8.342" style="fill:rgb(255,179,0);"/>
                    <clipPath id="_clip2">
                        <circle cx="9.83" cy="10.01" r="8.342"/>
                    </clipPath>
                    <g clip-path="url(#_clip2)">
                        <g transform="matrix(0.492391,0,0,0.463427,3.92106,4.4489)">
                            <g id="图层4">
                                <path d="M20.471,0C22.02,-0 23.294,1.275 23.294,2.824L23.294,16.941C23.294,18.49 22.02,19.765 20.471,19.765L20.471,21.176C20.471,22.725 19.196,24 17.647,24L3.529,24C1.98,24 0.706,22.725 0.706,21.176L0.706,5.647C0.706,4.098 1.98,2.824 3.529,2.824L4.941,2.824C4.941,1.275 6.216,-0 7.765,-0L20.471,0ZM17.647,5.082L3.529,5.082C3.262,5.082 3.029,5.272 2.976,5.534L2.965,5.647L2.965,21.176C2.965,21.444 3.154,21.676 3.416,21.73L3.529,21.741L17.647,21.741C17.914,21.741 18.147,21.551 18.2,21.289L18.212,21.176L18.212,5.647C18.212,5.38 18.022,5.147 17.76,5.094L17.647,5.082ZM20.471,2.259L7.765,2.259C7.497,2.259 7.265,2.449 7.211,2.711L7.2,2.824L17.647,2.824C19.196,2.824 20.471,4.098 20.471,5.647L20.471,17.506C20.738,17.506 20.971,17.316 21.024,17.054L21.035,16.941L21.035,2.824C21.035,2.556 20.846,2.324 20.584,2.27L20.471,2.259ZM13.553,13.835C14.25,13.835 14.824,14.409 14.824,15.106C14.824,15.803 14.25,16.376 13.553,16.376L6.212,16.376C5.515,16.376 4.941,15.803 4.941,15.106C4.941,14.409 5.515,13.835 6.212,13.835L13.553,13.835ZM10.729,8.471C11.426,8.471 12,9.044 12,9.741C12,10.438 11.426,11.012 10.729,11.012L6.212,11.012C5.515,11.012 4.941,10.438 4.941,9.741C4.941,9.044 5.515,8.471 6.212,8.471L10.729,8.471Z" style="fill:white;fill-rule:nonzero;"/>
                            </g>
                        </g>
                    </g>
                </g>
            </g>
        </g>
    </g>
</svg>
