<?xml version="1.0" encoding="UTF-8" standalone="no"?>
<!DOCTYPE svg PUBLIC "-//W3C//DTD SVG 1.1//EN" "http://www.w3.org/Graphics/SVG/1.1/DTD/svg11.dtd">
<svg width="100%" height="100%" viewBox="0 0 24 24" version="1.1" xmlns="http://www.w3.org/2000/svg" xmlns:xlink="http://www.w3.org/1999/xlink" xml:space="preserve" xmlns:serif="http://www.serif.com/" style="fill-rule:evenodd;clip-rule:evenodd;stroke-linejoin:round;stroke-miterlimit:2;">
    <path d="M7.354,15.922L8.352,13.202L11.235,16.082L8.515,17.083L7.354,15.922Z" style="fill:rgb(19,34,122);"/>
    <g transform="matrix(1,0,0,1,-0.434162,0)">
        <path d="M12.434,0C5.795,0 0.434,5.361 0.434,12C0.434,18.639 5.795,24 12.434,24C19.074,24 24.434,18.639 24.434,12C24.434,5.402 19.074,0 12.434,0ZM11.835,16.681C11.793,16.723 11.755,16.723 11.714,16.761L6.193,18.761C6.034,18.802 5.874,18.761 5.795,18.681C5.674,18.56 5.635,18.4 5.715,18.282L7.714,12.762C7.714,12.721 7.756,12.682 7.794,12.641L12.715,7.641C13.235,8.16 13.716,8.601 13.716,8.601L9.835,12.481C9.755,12.561 9.755,12.641 9.755,12.721C9.755,12.8 9.797,12.88 9.835,12.96C9.915,13.001 9.995,13.04 10.074,13.04C10.154,13.04 10.234,12.998 10.314,12.96L14.194,9.079L15.435,10.278L11.554,14.162C11.433,14.283 11.433,14.481 11.554,14.602C11.595,14.643 11.714,14.682 11.793,14.682C11.873,14.682 11.953,14.64 12.032,14.602L15.913,10.721L16.873,11.681L11.835,16.681ZM18.796,9.72L17.237,11.279L13.155,7.201L14.714,5.641C15.275,5.08 16.194,5.08 16.714,5.641L18.755,7.682C19.354,8.24 19.354,9.162 18.796,9.72Z" style="fill:rgb(19,34,122);fill-rule:nonzero;"/>
    </g>
</svg>
