<?xml version="1.0" encoding="UTF-8" standalone="no"?>
<!DOCTYPE svg PUBLIC "-//W3C//DTD SVG 1.1//EN" "http://www.w3.org/Graphics/SVG/1.1/DTD/svg11.dtd">
<svg width="100%" height="100%" viewBox="0 0 24 24" version="1.1" xmlns="http://www.w3.org/2000/svg" xmlns:xlink="http://www.w3.org/1999/xlink" xml:space="preserve" xmlns:serif="http://www.serif.com/" style="fill-rule:evenodd;clip-rule:evenodd;stroke-linejoin:round;stroke-miterlimit:2;">
    <g transform="matrix(1.90303,0,0,1.90303,-3.85426,-4.41256)">
        <circle cx="8.331" cy="8.624" r="6.306" style="fill:rgb(18,150,219);"/>
        <clipPath id="_clip1">
            <circle cx="8.331" cy="8.624" r="6.306"/>
        </clipPath>
        <g clip-path="url(#_clip1)">
            <g transform="matrix(0.595307,0,0,0.595307,1.18739,1.48092)">
                <path d="M18.172,7.845L17.63,10.756L17.536,11.263C17.494,11.49 17.275,11.641 17.047,11.598L16.566,11.509L13.627,10.962C13.399,10.92 13.249,10.701 13.291,10.473L13.385,9.967C13.428,9.739 13.646,9.589 13.874,9.631L15.326,9.901C14.246,8.025 11.882,7.258 9.89,8.197C7.793,9.186 6.892,11.696 7.88,13.793C8.869,15.889 11.379,16.791 13.476,15.802C13.89,15.607 14.384,15.784 14.58,16.199C14.775,16.613 14.597,17.107 14.183,17.302C13.03,17.846 11.786,17.98 10.619,17.763C8.828,17.429 7.215,16.27 6.381,14.5C5.002,11.576 6.259,8.076 9.183,6.697C11.883,5.424 15.074,6.399 16.632,8.857L16.866,7.602C16.908,7.375 17.127,7.224 17.355,7.267L17.836,7.356C18.064,7.399 18.214,7.618 18.172,7.845Z" style="fill:rgb(235,235,235);"/>
            </g>
        </g>
    </g>
</svg>
