<?xml version="1.0" encoding="UTF-8" standalone="no"?>
<!DOCTYPE svg PUBLIC "-//W3C//DTD SVG 1.1//EN" "http://www.w3.org/Graphics/SVG/1.1/DTD/svg11.dtd">
<svg width="100%" height="100%" viewBox="0 0 24 24" version="1.1" xmlns="http://www.w3.org/2000/svg" xmlns:xlink="http://www.w3.org/1999/xlink" xml:space="preserve" xmlns:serif="http://www.serif.com/" style="fill-rule:evenodd;clip-rule:evenodd;stroke-linejoin:round;stroke-miterlimit:2;">
    <path d="M12,0C20,0 24,4 24,12C24,20 20,24 12,24C4,24 0,20 0,12C0,4 4,0 12,0ZM16.5,9.333L15.751,9.333L15.751,7.81C15.751,5.707 14.071,3.999 12,3.999C9.931,3.999 8.251,5.707 8.251,7.81L8.251,9.333L7.5,9.333C6.675,9.333 6,10.018 6,10.858L6,17.475C6,18.314 6.675,19.001 7.5,19.001L16.5,19.001C17.325,19.001 18,18.315 18,17.475L18,10.858C18.005,10.029 17.329,9.342 16.5,9.333ZM12,16.001C10.904,15.998 10.002,15.097 9.999,14.001C10.002,12.904 10.904,12.003 12,12C13.096,12.003 13.998,12.904 14.001,14.001C13.997,15.096 13.096,15.997 12,15.999L12,16.001ZM9.751,9.333L9.751,7.81C9.751,6.545 10.755,5.523 12,5.523C13.245,5.523 14.251,6.543 14.251,7.81L14.251,9.333L9.751,9.333Z" style="fill:rgb(18,150,219);fill-rule:nonzero;"/>
</svg>
