<?xml version="1.0" encoding="UTF-8" standalone="no"?>
<!DOCTYPE svg PUBLIC "-//W3C//DTD SVG 1.1//EN" "http://www.w3.org/Graphics/SVG/1.1/DTD/svg11.dtd">
<svg width="100%" height="100%" viewBox="0 0 24 24" version="1.1" xmlns="http://www.w3.org/2000/svg" xmlns:xlink="http://www.w3.org/1999/xlink" xml:space="preserve" xmlns:serif="http://www.serif.com/" style="fill-rule:evenodd;clip-rule:evenodd;stroke-linejoin:round;stroke-miterlimit:2;">
    <g transform="matrix(1.87569,0,0,1.87569,-8.4663,-5.51602)">
        <circle cx="10.911" cy="9.338" r="6.398" style="fill:rgb(76,175,80);"/>
        <clipPath id="_clip1">
            <circle cx="10.911" cy="9.338" r="6.398"/>
        </clipPath>
        <g clip-path="url(#_clip1)">
            <g transform="matrix(0.667326,0,0,0.667326,2.90319,1.33027)">
                <path d="M10.347,16.687L7.54,16.687C7.536,16.687 7.532,16.687 7.528,16.687C6.914,16.687 6.408,16.181 6.408,15.566C6.408,15.563 6.408,15.559 6.408,15.555L6.408,7.54C6.408,6.906 6.928,6.408 7.54,6.408L13.97,6.408C14.604,6.408 15.102,6.906 15.102,7.54L15.102,9.94C15.102,10.121 14.944,10.279 14.762,10.279C14.581,10.279 14.423,10.121 14.423,9.94L14.423,7.54C14.421,7.28 14.207,7.066 13.947,7.064L7.54,7.064C7.28,7.066 7.066,7.28 7.064,7.54L7.064,15.555C7.064,15.804 7.268,16.031 7.54,16.031L10.347,16.031C10.529,16.031 10.687,16.189 10.687,16.37C10.687,16.528 10.529,16.687 10.347,16.687ZM8.309,11.932C8.128,11.932 7.992,11.75 7.992,11.547C7.992,11.344 8.128,11.162 8.309,11.162L10.256,11.162C10.438,11.162 10.573,11.344 10.573,11.547C10.573,11.75 10.438,11.932 10.256,11.932L8.309,11.932ZM9.894,14.038C9.894,14.242 9.736,14.423 9.554,14.423L8.332,14.423C8.15,14.423 7.992,14.242 7.992,14.038C7.992,13.834 8.15,13.653 8.332,13.653L9.554,13.653C9.736,13.653 9.894,13.834 9.894,14.038ZM8.332,9.668C8.15,9.668 7.992,9.487 7.992,9.283C7.992,9.08 8.15,8.899 8.332,8.899L13.177,8.899C13.357,8.899 13.516,9.08 13.516,9.283C13.516,9.487 13.358,9.668 13.177,9.668L8.332,9.668ZM16.619,16.619C15.986,17.253 15.148,17.593 14.264,17.593C13.381,17.593 12.544,17.253 11.909,16.619C11.275,15.986 10.936,15.148 10.936,14.264C10.936,13.381 11.275,12.544 11.909,11.909C12.543,11.275 13.381,10.936 14.264,10.936C15.148,10.936 15.985,11.275 16.619,11.909C17.253,12.543 17.593,13.381 17.593,14.264C17.593,15.148 17.253,15.985 16.619,16.619ZM14.264,11.593C12.793,11.593 11.593,12.793 11.593,14.264C11.593,15.736 12.793,16.936 14.264,16.936C15.736,16.936 16.936,15.736 16.936,14.264C16.936,12.793 15.736,11.593 14.264,11.593ZM15.736,13.517L14.558,15.623C14.519,15.705 14.443,15.764 14.354,15.781L14.286,15.781C14.219,15.784 14.154,15.759 14.105,15.713L12.905,14.875C12.746,14.762 12.705,14.54 12.814,14.377C12.866,14.306 12.937,14.251 13.018,14.219L13.087,14.219C13.155,14.219 13.223,14.242 13.267,14.287L14.173,14.921L15.192,13.132C15.237,13.042 15.305,12.997 15.396,12.974C15.487,12.952 15.554,12.974 15.645,13.019C15.787,13.144 15.824,13.351 15.736,13.517Z" style="fill:rgb(235,235,235);"/>
            </g>
        </g>
    </g>
</svg>
