<?xml version="1.0" encoding="UTF-8" standalone="no"?>
<!DOCTYPE svg PUBLIC "-//W3C//DTD SVG 1.1//EN" "http://www.w3.org/Graphics/SVG/1.1/DTD/svg11.dtd">
<svg width="100%" height="100%" viewBox="0 0 24 24" version="1.1" xmlns="http://www.w3.org/2000/svg" xmlns:xlink="http://www.w3.org/1999/xlink" xml:space="preserve" xmlns:serif="http://www.serif.com/" style="fill-rule:evenodd;clip-rule:evenodd;stroke-linejoin:round;stroke-miterlimit:2;">
    <g transform="matrix(1,0,0,1,0.0036,0.0299999)">
        <path d="M1.43,11.97C1.43,17.766 6.2,22.536 11.996,22.536C17.793,22.536 22.562,17.766 22.562,11.97C22.562,6.174 17.793,1.404 11.996,1.404C6.2,1.404 1.43,6.174 1.43,11.97Z" style="fill:rgb(79,195,247);fill-rule:nonzero;"/>
        <clipPath id="_clip1">
            <path d="M1.43,11.97C1.43,17.766 6.2,22.536 11.996,22.536C17.793,22.536 22.562,17.766 22.562,11.97C22.562,6.174 17.793,1.404 11.996,1.404C6.2,1.404 1.43,6.174 1.43,11.97Z" clip-rule="nonzero"/>
        </clipPath>
        <g clip-path="url(#_clip1)">
            <g transform="matrix(1.27772,0,0,1.27772,-3.34078,-3.52511)">
                <path d="M13.79,9.572C13.79,9.464 13.878,9.378 13.985,9.378L15.397,9.378C15.505,9.378 15.592,9.466 15.592,9.572L15.592,13.847C15.592,13.955 15.504,14.041 15.397,14.041L13.985,14.041C13.877,14.041 13.79,13.954 13.79,13.847L13.79,9.572ZM11.095,8.166C11.095,8.058 11.183,7.972 11.29,7.972L12.702,7.972C12.81,7.972 12.896,8.059 12.896,8.166L12.896,13.847C12.896,13.955 12.809,14.041 12.702,14.041L11.29,14.041C11.182,14.041 11.095,13.954 11.095,13.847L11.095,8.166ZM8.401,10.998C8.401,10.89 8.489,10.804 8.596,10.804L10.008,10.804C10.116,10.804 10.202,10.891 10.202,10.998L10.202,13.847C10.202,13.955 10.115,14.041 10.008,14.041L8.596,14.041C8.488,14.041 8.401,13.954 8.401,13.847L8.401,10.998ZM15.961,16.283L8.046,16.283C7.649,16.283 7.326,15.96 7.326,15.563C7.326,15.166 7.649,14.843 8.046,14.843L15.961,14.843C16.358,14.843 16.681,15.166 16.681,15.563C16.681,15.96 16.36,16.283 15.961,16.283Z" style="fill:rgb(235,235,235);"/>
            </g>
            <g transform="matrix(0.695653,0,0,0.695653,1.02693,5.47387)">
                <path d="M10.679,4.249C10.699,4.188 10.756,4.147 10.819,4.147C10.883,4.147 10.94,4.188 10.96,4.249C11.052,4.533 11.156,4.853 11.156,4.853C11.156,4.853 11.492,4.853 11.791,4.853C11.855,4.853 11.911,4.894 11.931,4.955C11.951,5.016 11.929,5.082 11.878,5.12C11.747,5.215 11.608,5.316 11.507,5.389C11.422,5.451 11.386,5.561 11.419,5.661C11.457,5.78 11.51,5.943 11.56,6.097C11.58,6.158 11.558,6.224 11.507,6.262C11.455,6.299 11.385,6.299 11.333,6.262C11.091,6.086 10.819,5.888 10.819,5.888C10.819,5.888 10.547,6.086 10.306,6.262C10.254,6.299 10.184,6.299 10.132,6.262C10.081,6.224 10.059,6.158 10.079,6.097C10.129,5.943 10.182,5.78 10.22,5.661C10.253,5.561 10.217,5.451 10.132,5.389C10.031,5.316 9.892,5.215 9.761,5.12C9.71,5.082 9.688,5.016 9.708,4.955C9.727,4.894 9.784,4.853 9.848,4.853C10.009,4.853 10.182,4.853 10.306,4.853C10.412,4.853 10.505,4.785 10.538,4.685C10.576,4.566 10.629,4.402 10.679,4.249Z" style="fill:rgb(235,235,235);"/>
            </g>
            <g transform="matrix(0.695653,0,0,0.695653,7.84885,3.65546)">
                <path d="M10.679,4.249C10.699,4.188 10.756,4.147 10.819,4.147C10.883,4.147 10.94,4.188 10.96,4.249C11.052,4.533 11.156,4.853 11.156,4.853C11.156,4.853 11.492,4.853 11.791,4.853C11.855,4.853 11.911,4.894 11.931,4.955C11.951,5.016 11.929,5.082 11.878,5.12C11.747,5.215 11.608,5.316 11.507,5.389C11.422,5.451 11.386,5.561 11.419,5.661C11.457,5.78 11.51,5.943 11.56,6.097C11.58,6.158 11.558,6.224 11.507,6.262C11.455,6.299 11.385,6.299 11.333,6.262C11.091,6.086 10.819,5.888 10.819,5.888C10.819,5.888 10.547,6.086 10.306,6.262C10.254,6.299 10.184,6.299 10.132,6.262C10.081,6.224 10.059,6.158 10.079,6.097C10.129,5.943 10.182,5.78 10.22,5.661C10.253,5.561 10.217,5.451 10.132,5.389C10.031,5.316 9.892,5.215 9.761,5.12C9.71,5.082 9.688,5.016 9.708,4.955C9.727,4.894 9.784,4.853 9.848,4.853C10.009,4.853 10.182,4.853 10.306,4.853C10.412,4.853 10.505,4.785 10.538,4.685C10.576,4.566 10.629,4.402 10.679,4.249Z" style="fill:rgb(235,235,235);"/>
            </g>
            <g transform="matrix(0.192108,0,0,0.192108,9.6714,3.85069)">
                <path d="M8.438,7.057L9.843,8.845C9.881,8.893 9.939,8.922 10,8.922C10.062,8.922 10.12,8.893 10.158,8.845L11.843,6.7C11.881,6.652 11.939,6.623 12,6.623C12.062,6.623 12.12,6.652 12.158,6.7L13.841,8.845C13.879,8.893 13.937,8.922 13.998,8.922C14.06,8.922 14.118,8.893 14.156,8.845L15.564,7.056C15.602,7.008 15.66,6.98 15.721,6.98C15.766,6.98 15.81,6.995 15.845,7.023C15.9,7.066 15.928,7.134 15.92,7.203C15.92,7.203 15.475,11.027 15.361,12.002C15.346,12.13 15.238,12.227 15.109,12.227C14.088,12.227 9.914,12.227 8.893,12.227C8.764,12.227 8.656,12.13 8.641,12.002C8.527,11.027 8.082,7.204 8.082,7.204C8.081,7.196 8.081,7.188 8.081,7.18C8.081,7.071 8.171,6.98 8.281,6.98C8.342,6.98 8.4,7.009 8.438,7.057Z" style="fill:white;fill-rule:nonzero;"/>
            </g>
        </g>
    </g>
</svg>
