<?xml version="1.0" encoding="UTF-8" standalone="no"?>
<!DOCTYPE svg PUBLIC "-//W3C//DTD SVG 1.1//EN" "http://www.w3.org/Graphics/SVG/1.1/DTD/svg11.dtd">
<svg width="100%" height="100%" viewBox="0 0 24 24" version="1.1" xmlns="http://www.w3.org/2000/svg" xmlns:xlink="http://www.w3.org/1999/xlink" xml:space="preserve" xmlns:serif="http://www.serif.com/" style="fill-rule:evenodd;clip-rule:evenodd;stroke-linejoin:round;stroke-miterlimit:2;">
    <g id="图层1">
        <g transform="matrix(1.95339,0,0,1.95339,-4.56387,-9.61105)">
            <circle cx="8.48" cy="11.063" r="6.143" style="fill:rgb(213,0,249);"/>
            <clipPath id="_clip1">
                <circle cx="8.48" cy="11.063" r="6.143"/>
            </clipPath>
            <g clip-path="url(#_clip1)">
                <g id="图层2" transform="matrix(0.511929,0,0,0.511929,2.33638,4.92018)">
                    <g id="图层11" serif:id="图层1" transform="matrix(0.249904,0,0,0.249904,9.00114,14.1617)">
                        <path d="M16.978,12.897L7.022,12.897C6.529,12.897 6.125,12.493 6.125,12C6.125,11.507 6.529,11.103 7.022,11.103L16.978,11.103C17.471,11.103 17.875,11.507 17.875,12C17.875,12.493 17.471,12.897 16.978,12.897Z" style="fill:white;fill-rule:nonzero;"/>
                        <path d="M11.103,16.978L11.103,7.022C11.103,6.529 11.507,6.125 12,6.125C12.493,6.125 12.897,6.529 12.897,7.022L12.897,16.978C12.897,17.471 12.493,17.875 12,17.875C11.507,17.875 11.103,17.471 11.103,16.978Z" style="fill:white;fill-rule:nonzero;"/>
                    </g>
                    <g transform="matrix(0.358919,0,0,0.358919,7.69274,13.4616)">
                        <path d="M11.897,22.5C10.12,22.5 8.445,21.72 7.301,20.358C7.034,20.041 7.076,19.568 7.392,19.301C7.709,19.034 8.182,19.076 8.449,19.392C9.307,20.414 10.563,21 11.897,21C13.23,21 14.487,20.414 15.345,19.392C15.612,19.076 16.085,19.034 16.402,19.301C16.718,19.568 16.76,20.041 16.493,20.358C15.349,21.72 13.673,22.5 11.897,22.5ZM19.341,18.255L4.659,18.255C3.598,18.255 2.698,17.609 2.37,16.605C2.046,15.614 2.384,14.571 3.23,13.952L4.263,13.198C4.491,13.031 4.627,12.766 4.627,12.49L4.627,8.791C4.627,6.841 5.395,5.011 6.79,3.633C8.182,2.257 10.031,1.5 12,1.5C13.969,1.5 15.818,2.257 17.21,3.633C18.605,5.011 19.373,6.841 19.373,8.791L19.373,12.487C19.373,12.764 19.509,13.029 19.737,13.195L20.77,13.95C21.616,14.569 21.954,15.612 21.63,16.603C21.302,17.609 20.405,18.255 19.341,18.255ZM12,3C8.761,3 6.127,5.597 6.127,8.791L6.127,12.487C6.127,13.242 5.761,13.959 5.149,14.407L4.116,15.162C3.637,15.513 3.75,15.998 3.795,16.139C3.893,16.437 4.17,16.755 4.657,16.755L19.338,16.755C19.826,16.755 20.105,16.437 20.201,16.139C20.248,15.998 20.36,15.511 19.88,15.162L18.846,14.407C18.234,13.959 17.869,13.242 17.869,12.487L17.869,8.791C17.873,5.597 15.239,3 12,3Z" style="fill:white;fill-rule:nonzero;"/>
                    </g>
                </g>
            </g>
        </g>
        <path d="M5.276,12.8C5.156,12.8 5.072,12.736 5.024,12.607C5.008,12.565 5,12.524 5,12.483L5,8.362C5,8.183 5.07,8.047 5.21,7.955C5.27,7.918 5.332,7.9 5.397,7.9L5.475,7.9C5.603,7.9 5.715,7.969 5.811,8.107L8.028,11.785C8.048,11.813 8.064,11.827 8.076,11.827C8.096,11.822 8.108,11.799 8.112,11.758L8.112,8.224C8.112,8.086 8.169,7.987 8.281,7.928C8.317,7.909 8.353,7.9 8.389,7.9C8.505,7.9 8.589,7.962 8.641,8.086C8.661,8.132 8.671,8.178 8.671,8.224L8.671,12.345C8.671,12.519 8.599,12.653 8.455,12.745C8.395,12.782 8.333,12.8 8.269,12.8L8.197,12.8C8.06,12.795 7.952,12.733 7.872,12.614L5.643,8.915C5.623,8.887 5.607,8.873 5.595,8.873C5.575,8.878 5.563,8.901 5.559,8.942L5.559,12.483C5.559,12.616 5.505,12.713 5.397,12.772C5.357,12.791 5.316,12.8 5.276,12.8ZM10.101,12.765C9.981,12.765 9.897,12.701 9.849,12.572C9.833,12.531 9.825,12.489 9.825,12.448L9.825,8.259C9.825,8.121 9.881,8.022 9.993,7.962C10.029,7.944 10.065,7.935 10.101,7.935L12.511,7.935C12.627,7.935 12.707,7.997 12.751,8.121C12.767,8.162 12.775,8.201 12.775,8.238C12.775,8.367 12.721,8.459 12.613,8.514C12.577,8.528 12.543,8.535 12.511,8.535L10.456,8.535C10.408,8.535 10.384,8.563 10.384,8.618L10.384,10.046L12.294,10.046C12.411,10.046 12.491,10.108 12.535,10.233C12.551,10.274 12.559,10.313 12.559,10.35C12.559,10.479 12.505,10.571 12.397,10.626C12.361,10.64 12.326,10.647 12.294,10.647L10.384,10.647L10.384,12.082C10.384,12.137 10.408,12.165 10.456,12.165L12.511,12.165C12.627,12.165 12.707,12.227 12.751,12.351C12.767,12.393 12.775,12.432 12.775,12.469C12.775,12.598 12.721,12.69 12.613,12.745C12.581,12.759 12.547,12.765 12.511,12.765L10.101,12.765ZM18.73,7.9C18.85,7.9 18.934,7.96 18.982,8.079C18.994,8.121 19,8.16 19,8.197C19,8.229 18.994,8.273 18.982,8.328L17.804,12.483C17.732,12.69 17.612,12.795 17.444,12.8C17.292,12.8 17.179,12.719 17.107,12.558C17.099,12.531 17.091,12.506 17.083,12.483L16.164,9.142C16.152,9.105 16.138,9.087 16.122,9.087C16.106,9.087 16.092,9.105 16.08,9.142L15.161,12.483C15.12,12.639 15.034,12.74 14.902,12.786C14.866,12.795 14.832,12.8 14.8,12.8C14.628,12.795 14.508,12.69 14.439,12.483L13.262,8.328C13.25,8.273 13.244,8.229 13.244,8.197C13.244,8.063 13.3,7.971 13.412,7.921C13.448,7.907 13.482,7.9 13.514,7.9C13.646,7.9 13.736,7.978 13.785,8.135C13.789,8.144 13.791,8.151 13.791,8.155L14.752,11.779C14.764,11.815 14.778,11.834 14.794,11.834C14.81,11.834 14.824,11.815 14.836,11.779L15.803,8.169C15.835,8.031 15.916,7.944 16.044,7.907C16.072,7.902 16.098,7.9 16.122,7.9C16.262,7.9 16.362,7.971 16.422,8.114C16.43,8.132 16.436,8.151 16.44,8.169L17.408,11.779C17.42,11.815 17.434,11.834 17.45,11.834C17.466,11.834 17.48,11.815 17.492,11.779L18.453,8.155C18.513,7.999 18.605,7.914 18.73,7.9Z" style="fill:white;"/>
    </g>
</svg>
