<?xml version="1.0" encoding="UTF-8" standalone="no"?>
<!DOCTYPE svg PUBLIC "-//W3C//DTD SVG 1.1//EN" "http://www.w3.org/Graphics/SVG/1.1/DTD/svg11.dtd">
<svg width="100%" height="100%" viewBox="0 0 24 24" version="1.1" xmlns="http://www.w3.org/2000/svg" xmlns:xlink="http://www.w3.org/1999/xlink" xml:space="preserve" xmlns:serif="http://www.serif.com/" style="fill-rule:evenodd;clip-rule:evenodd;stroke-linejoin:round;stroke-miterlimit:2;">
    <g transform="matrix(2.12986,0,0,2.12986,-16.7804,-6.44417)">
        <circle cx="13.513" cy="8.66" r="5.634" style="fill:rgb(255,55,112);"/>
    </g>
    <g transform="matrix(1,0,0,1,0.00247605,-0.0051126)">
        <path d="M11.536,19.12C8.444,18.885 6.303,16.018 6.396,12.696C6.438,11.14 7.376,9.596 8.669,8.917C8.856,10.313 9.065,11.203 9.775,11.534C9.702,10.931 9.498,8.947 9.629,8.326C10.149,5.869 10.99,5.686 11.672,5.138C12.316,4.732 13.169,4.908 13.298,4.941C13.01,5.288 12.928,5.541 12.701,6.679C12.293,8.708 12.867,9.195 13.558,10.475C13.511,10.083 13.652,8.935 14.013,8.303C14.837,6.855 15.123,6.93 15.479,6.867C15.517,6.916 15.557,6.96 15.594,7.012C15.62,7.049 15.643,7.089 15.669,7.127C15.887,10.627 16.679,10.489 17.208,11.838C17.29,12.047 17.349,12.363 17.419,12.445C17.499,12.984 17.562,13.258 17.588,13.581C17.841,16.887 14.626,19.356 11.536,19.12ZM13.638,14.361C13.511,15.472 13.132,16.46 12.951,15.516C12.773,14.579 12.649,14.054 12.145,13.148C11.768,12.876 11.48,12.675 11.478,12.625C11.436,12.525 11.457,13.797 10.892,14.568C10.423,15.451 9.372,15.833 9.43,16.561C9.545,18.091 10.58,19.084 11.993,19.101C13.394,19.11 14.622,17.972 14.566,16.557C14.455,15.72 14.413,15.116 13.638,14.361Z" style="fill:white;fill-rule:nonzero;"/>
    </g>
    <g transform="matrix(1,0,0,1,0.447967,0.363713)">
        <path d="M17.583,13.579C17.557,13.256 17.494,12.981 17.414,12.443C17.346,12.361 17.286,12.044 17.204,11.836C17.159,11.721 17.11,11.616 17.063,11.52C15.896,12.705 15.177,14.331 15.177,16.123C15.177,16.767 15.271,17.388 15.442,17.974C16.81,16.974 17.726,15.404 17.583,13.579Z" style="fill:rgb(255,55,112);fill-opacity:0.5;fill-rule:nonzero;"/>
    </g>
    <g transform="matrix(-0.843866,0.164891,0.17833,0.912644,18.6022,-0.684366)">
        <path d="M17.583,13.579C17.557,13.256 17.494,12.981 17.414,12.443C17.346,12.361 17.286,12.044 17.204,11.836C17.159,11.721 17.11,11.616 17.063,11.52C15.896,12.705 15.177,14.331 15.177,16.123C15.177,16.767 15.271,17.388 15.442,17.974C16.81,16.974 17.726,15.404 17.583,13.579Z" style="fill:rgb(255,55,112);fill-opacity:0.5;fill-rule:nonzero;"/>
    </g>
</svg>
