<?xml version="1.0" encoding="UTF-8" standalone="no"?>
<!DOCTYPE svg PUBLIC "-//W3C//DTD SVG 1.1//EN" "http://www.w3.org/Graphics/SVG/1.1/DTD/svg11.dtd">
<svg width="100%" height="100%" viewBox="0 0 24 24" version="1.1" xmlns="http://www.w3.org/2000/svg" xmlns:xlink="http://www.w3.org/1999/xlink" xml:space="preserve" xmlns:serif="http://www.serif.com/" style="fill-rule:evenodd;clip-rule:evenodd;stroke-linejoin:round;stroke-miterlimit:2;">
    <path d="M12,0C20,0 24,4 24,12C24,20 20,24 12,24C4,24 0,20 0,12C0,4 4,0 12,0ZM10.853,13.1C11.052,13.45 11.451,13.65 11.85,13.65C12.249,13.65 12.648,13.45 12.848,13.1L16.638,8.3C17.187,7.6 16.938,7 15.99,7L7.96,7C7.062,7 6.763,7.6 7.312,8.35L10.853,13.1ZM16.14,15.35L7.86,15.35C7.561,15.35 7.262,15.5 7.112,15.75C6.963,16 6.963,16.35 7.112,16.6C7.312,16.85 7.561,17 7.86,17L16.14,17C16.439,17 16.738,16.85 16.888,16.6C17.037,16.35 17.037,16 16.888,15.75C16.738,15.5 16.439,15.35 16.14,15.35Z" style="fill:rgb(18,150,219);"/>
</svg>
