<?xml version="1.0" encoding="UTF-8" standalone="no"?>
<!DOCTYPE svg PUBLIC "-//W3C//DTD SVG 1.1//EN" "http://www.w3.org/Graphics/SVG/1.1/DTD/svg11.dtd">
<svg width="100%" height="100%" viewBox="0 0 24 24" version="1.1" xmlns="http://www.w3.org/2000/svg" xmlns:xlink="http://www.w3.org/1999/xlink" xml:space="preserve" xmlns:serif="http://www.serif.com/" style="fill-rule:evenodd;clip-rule:evenodd;stroke-linejoin:round;stroke-miterlimit:2;">
    <path d="M12,0C20,0 24,4 24,12C24,20 20,24 12,24C4,24 0,20 0,12C0,4 4,0 12,0ZM7.86,8.65L16.14,8.65C16.439,8.65 16.738,8.5 16.888,8.25C17.037,8 17.037,7.65 16.888,7.4C16.688,7.15 16.439,7 16.14,7L7.86,7C7.561,7 7.262,7.15 7.112,7.4C6.963,7.65 6.963,8 7.112,8.25C7.262,8.5 7.561,8.65 7.86,8.65ZM13.147,10.9C12.948,10.55 12.549,10.35 12.15,10.35C11.751,10.35 11.352,10.55 11.152,10.9L7.362,15.7C6.813,16.4 7.062,17 8.01,17L16.04,17C16.938,17 17.237,16.4 16.688,15.65L13.147,10.9Z" style="fill:rgb(18,150,219);"/>
</svg>
