<?xml version="1.0" encoding="UTF-8" standalone="no"?>
<!DOCTYPE svg PUBLIC "-//W3C//DTD SVG 1.1//EN" "http://www.w3.org/Graphics/SVG/1.1/DTD/svg11.dtd">
<svg width="100%" height="100%" viewBox="0 0 24 24" version="1.1" xmlns="http://www.w3.org/2000/svg" xmlns:xlink="http://www.w3.org/1999/xlink" xml:space="preserve" xmlns:serif="http://www.serif.com/" style="fill-rule:evenodd;clip-rule:evenodd;stroke-linejoin:round;stroke-miterlimit:2;">
    <g id="图层1">
        <g transform="matrix(1.90945,0,0,1.90945,-3.48931,-8.36895)">
            <circle cx="8.112" cy="10.667" r="6.285" style="fill:rgb(255,55,112);"/>
            <clipPath id="_clip1">
                <circle cx="8.112" cy="10.667" r="6.285"/>
            </clipPath>
            <g clip-path="url(#_clip1)">
                <g transform="matrix(0.325661,0,0,0.325661,4.2048,10.1273)">
                    <path d="M11.536,19.12C8.444,18.885 6.303,16.018 6.396,12.696C6.438,11.14 7.376,9.596 8.669,8.917C8.856,10.313 9.065,11.203 9.775,11.534C9.702,10.931 9.498,8.947 9.629,8.326C10.149,5.869 10.99,5.686 11.672,5.138C12.316,4.732 13.169,4.908 13.298,4.941C13.01,5.288 12.928,5.541 12.701,6.679C12.293,8.708 12.867,9.195 13.558,10.475C13.511,10.083 13.652,8.935 14.013,8.303C14.837,6.855 15.123,6.93 15.479,6.867C15.517,6.916 15.557,6.96 15.594,7.012C15.62,7.049 15.643,7.089 15.669,7.127C15.887,10.627 16.679,10.489 17.208,11.838C17.29,12.047 17.349,12.363 17.419,12.445C17.499,12.984 17.562,13.258 17.588,13.581C17.841,16.887 14.626,19.356 11.536,19.12ZM13.638,14.361C13.511,15.472 13.132,16.46 12.951,15.516C12.773,14.579 12.649,14.054 12.145,13.148C11.768,12.876 11.48,12.675 11.478,12.625C11.436,12.525 11.457,13.797 10.892,14.568C10.423,15.451 9.372,15.833 9.43,16.561C9.545,18.091 10.58,19.084 11.993,19.101C13.394,19.11 14.622,17.972 14.566,16.557C14.455,15.72 14.413,15.116 13.638,14.361Z" style="fill:white;fill-rule:nonzero;"/>
                </g>
            </g>
        </g>
        <path d="M5.304,12.746C5.168,12.746 5.074,12.683 5.019,12.556C5.001,12.515 4.992,12.475 4.992,12.434L4.992,8.252C4.992,8.117 5.055,8.02 5.182,7.961C5.223,7.943 5.263,7.934 5.304,7.934C5.435,7.934 5.53,7.995 5.589,8.117C5.611,8.162 5.623,8.207 5.623,8.252L5.623,10.048L8.178,10.048L8.178,8.252C8.178,8.117 8.241,8.02 8.367,7.961C8.408,7.943 8.449,7.934 8.489,7.934C8.62,7.934 8.715,7.995 8.774,8.117C8.797,8.162 8.808,8.207 8.808,8.252L8.808,12.434C8.808,12.565 8.747,12.66 8.625,12.719C8.58,12.737 8.535,12.746 8.489,12.746C8.354,12.746 8.259,12.683 8.205,12.556C8.187,12.515 8.178,12.475 8.178,12.434L8.178,10.638L5.623,10.638L5.623,12.434C5.623,12.565 5.562,12.66 5.44,12.719C5.394,12.737 5.349,12.746 5.304,12.746ZM12.21,12.78C11.401,12.78 10.776,12.493 10.333,11.919C10.256,11.815 10.19,11.711 10.136,11.607C9.937,11.237 9.834,10.814 9.824,10.34C9.843,9.508 10.123,8.867 10.665,8.415C10.76,8.338 10.859,8.27 10.963,8.212C11.325,8.004 11.74,7.9 12.21,7.9C13.023,7.9 13.651,8.191 14.094,8.774C14.166,8.869 14.23,8.971 14.284,9.079C14.483,9.45 14.587,9.87 14.596,10.34C14.582,11.14 14.316,11.768 13.796,12.224C13.688,12.319 13.575,12.4 13.457,12.468C13.096,12.676 12.68,12.78 12.21,12.78ZM12.21,12.19C12.856,12.19 13.34,11.944 13.66,11.451C13.692,11.397 13.724,11.345 13.755,11.295C13.895,11.015 13.965,10.697 13.965,10.34C13.965,9.703 13.755,9.21 13.335,8.862C13.272,8.813 13.206,8.768 13.139,8.727C12.872,8.569 12.563,8.49 12.21,8.49C11.564,8.49 11.081,8.736 10.76,9.228C10.728,9.283 10.696,9.335 10.665,9.384C10.525,9.664 10.455,9.983 10.455,10.34C10.455,10.959 10.651,11.442 11.044,11.79C11.121,11.853 11.198,11.908 11.275,11.953C11.541,12.111 11.853,12.19 12.21,12.19ZM17.022,12.746C16.886,12.746 16.792,12.683 16.737,12.556C16.719,12.515 16.71,12.475 16.71,12.434L16.71,8.557L15.334,8.557C15.203,8.557 15.113,8.496 15.063,8.374C15.05,8.338 15.043,8.302 15.043,8.266C15.043,8.135 15.102,8.045 15.219,7.995C15.26,7.977 15.298,7.968 15.334,7.968L18.71,7.968C18.841,7.968 18.931,8.029 18.981,8.151C18.999,8.191 19.008,8.23 19.008,8.266C19.008,8.392 18.947,8.483 18.825,8.537C18.784,8.551 18.746,8.557 18.71,8.557L17.341,8.557L17.341,12.434C17.341,12.565 17.28,12.66 17.158,12.719C17.112,12.737 17.067,12.746 17.022,12.746Z" style="fill:white;"/>
    </g>
</svg>
