<?xml version="1.0" encoding="UTF-8" standalone="no"?>
<!DOCTYPE svg PUBLIC "-//W3C//DTD SVG 1.1//EN" "http://www.w3.org/Graphics/SVG/1.1/DTD/svg11.dtd">
<svg width="100%" height="100%" viewBox="0 0 24 24" version="1.1" xmlns="http://www.w3.org/2000/svg" xmlns:xlink="http://www.w3.org/1999/xlink" xml:space="preserve" xmlns:serif="http://www.serif.com/" style="fill-rule:evenodd;clip-rule:evenodd;stroke-linejoin:round;stroke-miterlimit:2;">
    <path d="M12,0C20,0 24,4 24,12C24,20 20,24 12,24C4,24 0,20 0,12C0,4 4,0 12,0ZM15,18.85C16.645,18.85 17.999,17.496 17.999,15.85C17.999,14.205 16.645,12.851 15,12.851L9,12.851C7.355,12.851 6.001,14.205 6.001,15.85C6.001,17.496 7.355,18.85 9,18.85L15,18.85ZM11.993,5.15C10.116,5.15 8.571,6.694 8.571,8.571C8.571,10.448 10.116,11.993 11.993,11.993C13.87,11.993 15.414,10.448 15.414,8.571C15.414,6.694 13.87,5.15 11.993,5.15Z" style="fill:rgb(18,150,219);"/>
</svg>
