<?xml version="1.0" encoding="UTF-8" standalone="no"?>
<!DOCTYPE svg PUBLIC "-//W3C//DTD SVG 1.1//EN" "http://www.w3.org/Graphics/SVG/1.1/DTD/svg11.dtd">
<svg width="100%" height="100%" viewBox="0 0 24 24" version="1.1" xmlns="http://www.w3.org/2000/svg" xmlns:xlink="http://www.w3.org/1999/xlink" xml:space="preserve" xmlns:serif="http://www.serif.com/" style="fill-rule:evenodd;clip-rule:evenodd;stroke-linejoin:round;stroke-miterlimit:2;">
    <path d="M12,0C20,0 24,4 24,12C24,20 20,24 12,24C4,24 0,20 0,12C0,4 4,0 12,0ZM19.02,15.396L19.008,15.396L19.008,8.604C19.008,7.632 18.228,6.852 17.256,6.852L6.732,6.852C5.76,6.852 4.98,7.632 4.98,8.604L4.98,15.396C4.98,16.368 5.76,17.148 6.732,17.148L17.268,17.148C18.228,17.148 19.02,16.368 19.02,15.396ZM16.633,10.007C16.848,9.876 17.133,9.939 17.273,10.149C17.403,10.365 17.34,10.649 17.13,10.789L12.249,13.929C12.178,13.976 12.083,14 12,14C11.917,14 11.822,13.976 11.751,13.929L6.87,10.789C6.656,10.647 6.585,10.363 6.727,10.149C6.87,9.936 7.154,9.865 7.367,10.007L12,12.993L16.633,10.007Z" style="fill:rgb(18,150,219);"/>
</svg>
